<svg width="248" height="19" xmlns="http://www.w3.org/2000/svg"><path d="M16.95 12.125l-3.675-.5c-.225 2-1.5 3.525-4.05 3.525-2.85 0-4.375-2.2-4.375-5.8 0-3.6 1.45-5.75 4.3-5.75 2.55 0 3.8 1.625 3.975 3.375l3.7-.575c-.4-4.525-3.6-5.95-7.725-5.95C3.775.45.9 3.675.9 9.35c0 5.67 2.868 8.834 8.012 8.947l.277.003.248-.002c4.002-.077 7.17-1.916 7.513-6.173zM22.175 18l1.4-4.025h6.35L31.3 18h4.125L29.125.65H24.4L18.1 18h4.075zm6.85-7.1h-4.45l2.15-6.275h.15l2.15 6.275zm12.55 7.1v-4.65h2.95c3.25 0 6.375-2.275 6.375-6.375C50.9 3.3 48.4.75 44.525.75H37.7V18h3.875zm2.775-7.8h-2.775V3.9h2.775c1.55 0 2.6 1.175 2.6 3.075 0 1.9-1.15 3.225-2.6 3.225zM57.625 18V.75H53.75V18h3.875zM69.6 18V3.9h5.25V.75H60.5V3.9h5.225V18H69.6zm8.8 0l1.4-4.025h6.35L87.525 18h4.125L85.35.65h-4.725L74.325 18H78.4zm6.85-7.1H80.8l2.15-6.275h.15l2.15 6.275zM105.1 18v-3.15h-7.3V.75h-3.875V18H105.1zm13.9 0v-4.65h2.95c3.25 0 6.375-2.275 6.375-6.375 0-3.675-2.5-6.225-6.375-6.225h-6.825V18H119zm2.775-7.8H119V3.9h2.775c1.55 0 2.6 1.175 2.6 3.075 0 1.9-1.15 3.225-2.6 3.225zm10.75 7.8l1.4-4.025h6.35L141.65 18h4.125l-6.3-17.35h-4.725L128.45 18h4.075zm6.85-7.1h-4.45l2.15-6.275h.15l2.15 6.275zm12.55 7.1v-6.5h2.85l3.25 6.5h4.275v-.25l-3.575-6.7c1.9-.675 3.25-2.225 3.25-4.975 0-4.025-2.725-5.325-6.175-5.325h-7.75V18h3.875zm3.85-9.65h-3.85V3.9h3.85c1.45 0 2.25.875 2.25 2.225s-.8 2.225-2.25 2.225zm17.25 9.65V3.9h5.25V.75h-14.35V3.9h5.225V18h3.875zm11.95 0V6.675l7.9 11.325H197V.75h-3.825v11.3L185.25.75h-4.1V18h3.825zm28.75 0v-3.15H205.1v-4.175h7.275v-3.15H205.1V3.9h8.625V.75h-12.5V18h12.5zm7.25 0v-6.5h2.85l3.25 6.5h4.275v-.25l-3.575-6.7c1.9-.675 3.25-2.225 3.25-4.975 0-4.025-2.725-5.325-6.175-5.325h-7.75V18h3.875zm3.85-9.65h-3.85V3.9h3.85c1.45 0 2.25.875 2.25 2.225s-.8 2.225-2.25 2.225zm15.95 9.95c3.625 0 7.1-1.55 7.1-5.725 0-7.025-10-3.65-10-7.025 0-1.225 1-2 2.75-2 1.875 0 3.325.825 3.475 2.85h.225l3.375-.3c0-4.05-2.925-5.65-6.925-5.65-3.775 0-6.825 1.85-6.825 5.2 0 7.375 9.975 3.875 9.975 7.25 0 1.7-1.5 2.325-3.075 2.325-1.875 0-3.6-.7-3.75-3.175h-.2l-3.475.45c0 4.45 3.75 5.8 7.35 5.8z" fill="#021534"/></svg>