<?xml version="1.0" encoding="UTF-8"?>
<svg width="1600px" height="470px" viewBox="0 0 1600 470" version="1.1" xmlns="http://www.w3.org/2000/svg" xmlns:xlink="http://www.w3.org/1999/xlink">
    <title>Images/Home/stat-background</title>
    <defs>
        <rect id="path-1" x="0" y="0" width="1600" height="470"></rect>
    </defs>
    <g id="R3-Designs" stroke="none" stroke-width="1" fill="none" fill-rule="evenodd">
        <g id="Home---D-R3" transform="translate(0.000000, -1150.000000)">
            <g id="Group-7" transform="translate(0.000000, 1150.000000)">
                <mask id="mask-2" fill="white">
                    <use xlink:href="#path-1"></use>
                </mask>
                <use id="Mask" fill="#F6F8F9" xlink:href="#path-1"></use>
                <g id="Group-181" opacity="0.461681548" style="mix-blend-mode: overlay;" mask="url(#mask-2)" fill="#0E053F">
                    <g transform="translate(-181.000000, -295.000000)">
                        <path d="M1784,1041.71831 C1776.16799,1052.07947 1768.50044,1062.58304 1761,1073.22108 C1767.24851,1061.79281 1773.68911,1050.45594 1780.32445,1039.22108 L1784,1041.71831 Z" id="Fill-1"></path>
                        <path d="M1784,992.90424 C1763.54062,1018.79801 1744.20486,1045.61967 1726,1073.22108 C1742.94559,1044.83066 1761.08693,1017.11351 1780.43791,990.221082 L1784,992.90424 Z" id="Fill-3"></path>
                        <path d="M1783,949.071724 C1749.22269,988.218257 1718.19735,1029.78276 1690,1073.22108 C1716.93906,1028.99589 1746.80993,986.477663 1779.58088,946.221082 L1783,949.071724 Z" id="Fill-5"></path>
                        <path d="M1783,908.240867 C1759.19829,933.631389 1736.5814,960.165568 1715.23622,987.716478 C1693.88775,1015.26541 1673.81098,1043.82644 1655,1073.22108 C1673.185,1043.43178 1692.67002,1014.41989 1713.4715,986.367227 C1734.26969,958.311256 1756.385,931.217808 1779.73846,905.221082 L1783,908.240867 Z" id="Fill-7"></path>
                        <path d="M1783,872.37774 C1752.1088,902.516965 1722.95551,934.469225 1695.75614,968.039371 C1668.54952,1001.60424 1643.29747,1036.77645 1620,1073.22108 C1642.67054,1036.38418 1667.33845,1000.74783 1694.02152,966.653554 C1720.69603,932.554661 1749.38373,900.007066 1779.87585,869.221082 L1783,872.37774 Z" id="Fill-9"></path>
                        <path d="M1782,839.504931 C1743.91196,873.679498 1708.1137,910.435267 1675.04285,949.536266 C1641.95616,988.624742 1611.60282,1030.03801 1584,1073.22108 C1610.97444,1029.6445 1640.75087,987.756651 1673.33327,948.113837 C1705.90048,908.461794 1741.26838,871.075884 1779.00394,836.221082 L1782,839.504931 Z" id="Fill-11"></path>
                        <path d="M1783,807.627515 C1737.44094,845.405734 1694.70086,886.63723 1655.56353,931.109555 C1616.40047,975.559448 1580.8606,1023.21058 1549,1073.22108 C1580.23189,1022.81669 1615.20374,974.676665 1653.88586,929.650127 C1692.54159,884.602475 1734.88979,842.708562 1780.14143,804.221082 L1783,807.627515 Z" id="Fill-13"></path>
                        <path d="M1782,779.72624 C1755.68858,800.065391 1730.17644,821.452461 1705.64,843.923064 C1681.10094,866.38971 1657.54023,889.939889 1635.08559,914.517544 C1612.62831,939.091901 1591.27975,964.693075 1571.0952,991.193126 C1550.90735,1017.69318 1531.88484,1045.08947 1514,1073.22108 C1531.57145,1044.89228 1550.29704,1017.27309 1570.20902,990.525069 C1590.11837,963.774414 1611.21346,937.898894 1633.4403,913.02579 C1655.66582,888.150049 1679.02244,864.279361 1703.38111,841.474399 C1727.7378,818.666141 1753.09523,796.923608 1779.27102,776.221082 L1782,779.72624 Z" id="Fill-15"></path>
                        <path d="M1782,753.811142 C1752.06323,775.376533 1723.01213,798.182307 1695.09842,822.322002 C1667.18274,846.455768 1640.40841,871.922138 1614.97115,898.676319 C1589.5306,925.426548 1565.42975,953.460634 1542.76086,982.619167 C1520.08736,1011.77441 1498.84516,1042.04816 1479,1073.22108 C1498.53149,1041.85252 1519.47846,1011.35216 1541.88046,981.941996 C1564.27785,952.529854 1588.13224,924.213173 1613.35402,897.154661 C1638.5725,870.093513 1665.15506,844.295145 1692.90732,819.813571 C1720.65693,795.326727 1749.56965,772.157337 1779.38781,750.221082 L1782,753.811142 Z" id="Fill-17"></path>
                        <path d="M1782,727.895891 C1748.35906,750.608753 1715.66507,774.742613 1684.2611,800.479461 C1652.85583,826.209716 1622.74716,853.544278 1594.22158,882.465345 C1565.69006,911.380478 1538.74623,941.877499 1513.52968,973.757272 C1488.30655,1005.63441 1464.8107,1038.88704 1443,1073.22108 C1464.49791,1038.68988 1487.70005,1005.2091 1512.65649,973.071501 C1537.60699,940.931268 1564.31179,910.142794 1592.63587,880.911151 C1620.95337,851.672915 1650.88555,823.996126 1682.142,797.909139 C1713.39648,771.814239 1745.96865,747.3098 1779.50422,724.221082 L1782,727.895891 Z" id="Fill-19"></path>
                        <path d="M1784,702.97185 C1746.59449,726.722315 1710.16705,752.040167 1675.17015,779.239014 C1640.17061,806.427298 1606.6115,835.499879 1574.88732,866.489769 C1543.1559,897.469756 1513.2693,930.360449 1485.43433,964.927467 C1457.58948,999.488542 1431.79626,1035.7134 1408,1073.22108 C1431.48275,1035.51731 1456.9842,999.060053 1484.56758,964.232244 C1512.14173,929.399814 1541.79781,896.208716 1573.3323,864.902576 C1604.85889,833.586532 1638.25598,804.162708 1673.1205,776.608657 C1707.98238,749.045362 1744.30181,723.349859 1781.61115,699.221082 L1784,702.97185 Z" id="Fill-21"></path>
                        <path d="M1784,682.021877 C1743.07083,706.568239 1703.11841,732.769213 1664.70493,761.097919 C1626.29013,789.414765 1589.42745,819.866593 1554.64481,852.568718 C1519.8536,885.257664 1487.15561,920.190319 1456.84742,957.102444 C1426.52605,994.006661 1398.59647,1032.8719 1373,1073.22108 C1398.28341,1032.67619 1425.92234,993.57637 1455.98667,956.401326 C1486.03782,919.219034 1518.51238,883.978652 1553.11707,850.956939 C1587.7132,817.921387 1624.42561,787.110434 1662.7165,758.424579 C1701.00674,729.726863 1740.86293,703.146338 1781.70181,678.221082 L1784,682.021877 Z" id="Fill-23"></path>
                        <path d="M1782,662.067719 C1737.70551,687.392015 1694.36308,714.410043 1652.64522,743.783882 C1610.92669,773.14125 1570.84988,804.868922 1533.08069,839.18166 C1495.30095,873.476611 1459.85124,910.353334 1427.12256,949.522624 C1394.37805,988.680715 1364.35984,1030.10831 1337,1073.22108 C1364.046,1029.912 1393.77543,988.247894 1426.26742,948.813773 C1458.74293,909.36977 1493.97703,872.178807 1531.58007,837.543924 C1569.17191,802.891254 1609.11026,770.799934 1650.71604,741.069035 C1692.31984,711.321666 1735.57393,683.922202 1779.78007,658.221082 L1782,662.067719 Z" id="Fill-25"></path>
                        <path d="M1783,641.114098 C1735.20383,667.293164 1688.30175,695.145943 1643.09158,725.577574 C1597.88208,755.989412 1554.38228,788.999234 1513.42497,824.973184 C1472.45645,860.923384 1434.06074,899.833095 1398.7561,941.400163 C1363.43036,982.952058 1331.2036,1027.12898 1302,1073.22108 C1330.88975,1026.93239 1362.82969,982.515982 1397.90751,940.682386 C1432.96357,898.834936 1471.15224,859.604601 1511.95394,823.307388 C1552.74378,786.986424 1596.11632,753.605839 1641.22231,722.817299 C1686.3283,692.008968 1733.1473,663.77355 1780.85379,637.221082 L1783,641.114098 Z" id="Fill-27"></path>
                        <path d="M1784,622.145235 C1732.76448,649.1298 1682.3406,677.694441 1633.64954,709.019766 C1584.96045,740.322678 1538.02398,774.41462 1493.85434,811.84931 C1449.6715,849.253017 1408.29706,889.998814 1370.39683,933.784131 C1332.47087,977.549013 1298.03297,1024.30991 1267,1073.22108 C1297.71888,1024.11281 1331.87105,977.109994 1369.55418,933.059023 C1407.2096,888.989595 1448.38541,847.916182 1492.40989,810.159808 C1536.42248,772.372452 1583.24282,737.904773 1631.83424,706.224145 C1680.42896,674.519786 1730.77366,645.574134 1781.91415,618.221082 L1784,622.145235 Z" id="Fill-29"></path>
                        <path d="M1783,603.174859 C1728.49289,631.055815 1674.68395,660.349258 1622.61944,692.550802 C1570.56086,724.726617 1520.26583,759.849456 1472.94278,798.705063 C1425.60721,837.522404 1381.29703,880.077791 1340.85412,926.084897 C1300.37892,972.066934 1263.79076,1021.44461 1231,1073.22108 C1263.47695,1021.24801 1299.78162,971.624914 1340.01817,925.352594 C1380.22242,879.055205 1424.34075,836.165335 1471.52931,796.990418 C1518.7027,757.777237 1568.89093,722.273731 1620.85985,689.71923 C1672.83206,657.13834 1726.56255,627.465551 1780.96615,599.221082 L1783,603.174859 Z" id="Fill-31"></path>
                        <path d="M1784,585.192377 C1726.19704,614.025479 1668.94816,644.013303 1613.43346,677.008944 C1557.92536,709.975568 1504.1699,746.000789 1453.582,786.148321 C1402.97959,826.249032 1355.61465,870.4892 1312.53139,918.621527 C1269.40856,966.7222 1230.5951,1018.64183 1196,1073.22108 C1230.28112,1018.44597 1268.81225,966.277721 1311.70158,917.882268 C1354.55067,869.455819 1401.73156,824.874708 1452.19479,784.411292 C1502.64285,743.901054 1556.30266,707.493344 1611.72106,674.148847 C1667.14868,640.774013 1724.31576,610.409635 1782.00461,581.221082 L1784,585.192377 Z" id="Fill-33"></path>
                        <path d="M1784,568.202328 C1723.06952,598.06464 1662.52224,628.741253 1603.67128,662.467541 C1544.83021,696.162206 1487.69865,732.97177 1433.90896,774.284365 C1407.01313,794.925839 1380.9582,816.669518 1355.92951,839.543732 C1330.89884,862.414651 1306.89638,886.415445 1284.04943,911.472987 C1238.32388,961.574234 1197.33774,1015.93673 1161,1073.22108 C1197.0238,1015.7404 1237.72898,961.127554 1283.22567,910.727203 C1305.95918,885.52011 1329.85941,861.358563 1354.80104,838.318327 C1379.74136,815.274138 1405.71978,793.352578 1432.549,772.527293 C1486.20744,730.848395 1543.24996,693.654739 1602.00463,659.58323 C1660.76853,625.479438 1721.23074,594.43191 1782.03129,564.221082 L1784,568.202328 Z" id="Fill-35"></path>
                        <path d="M1784,550.212847 C1719.93723,581.327518 1656.04398,612.809392 1593.78382,647.328435 C1531.53619,681.814516 1470.92693,719.417535 1413.81802,761.915494 C1385.26455,783.148651 1357.59425,805.577689 1331.02675,829.257327 C1304.45793,852.93235 1278.99785,877.857972 1254.79886,903.959698 C1230.59658,930.057469 1207.65804,957.328706 1186.03072,985.604642 C1164.39945,1013.8786 1144.07808,1043.15396 1125,1073.22108 C1143.92176,1043.05507 1164.09472,1013.6683 1185.58881,985.268424 C1207.07894,956.866571 1229.8915,929.456232 1253.98231,903.205515 C1278.06851,876.952821 1303.43098,851.864363 1329.91471,828.017276 C1356.39581,804.164914 1383.99422,781.554582 1412.48569,760.137494 C1469.47126,717.268377 1529.99873,679.279695 1592.15929,644.418501 C1654.33239,609.523685 1718.13265,577.675927 1782.04635,546.221082 L1784,550.212847 Z" id="Fill-37"></path>
                        <path d="M1783,533.216857 C1716.06404,565.689704 1649.05685,598.005542 1583.5994,633.284733 C1518.15711,668.530279 1454.25665,706.832854 1393.98784,750.39386 C1363.85574,772.155892 1334.64227,795.203011 1306.60594,819.618338 C1278.56631,844.028387 1251.70844,869.804665 1226.21829,896.877905 C1200.72286,923.946526 1176.59714,952.307491 1153.90046,981.772786 C1131.19851,1011.2361 1109.92364,1041.79847 1090,1073.22108 C1109.76669,1041.69952 1130.89318,1011.025 1153.45928,981.435022 C1176.02077,951.842406 1200.02252,923.339607 1225.40781,896.117276 C1250.78849,868.889668 1277.55074,842.947146 1305.5086,818.362937 C1333.46316,793.773451 1362.60804,770.543597 1392.68211,748.594211 C1452.83419,704.660477 1516.6575,665.971321 1582.01142,630.353047 C1647.37984,594.699809 1714.28415,562.023116 1781.05063,529.221082 L1783,533.216857 Z" id="Fill-39"></path>
                        <path d="M1783,516.212746 C1713.19802,550.247769 1643.03196,583.487889 1574.30839,619.544141 C1539.9499,637.567649 1505.95682,656.291067 1472.6022,676.100302 C1439.24824,695.90558 1406.53473,716.801292 1374.76572,739.06516 C1342.99672,761.323091 1312.17882,784.952476 1282.61015,810.072057 C1253.0395,835.18438 1224.72402,861.786899 1197.88599,889.814305 C1171.04202,917.835775 1145.67945,947.278174 1121.87149,977.930407 C1098.05694,1008.58 1075.79568,1040.4335 1055,1073.22108 C1075.63871,1040.33455 1097.75222,1008.36759 1121.43222,977.590018 C1145.10496,946.809808 1170.34617,917.224261 1197.08197,889.047109 C1223.81249,860.864021 1252.03497,834.093286 1281.52779,808.803511 C1311.01797,783.507139 1341.77189,759.693706 1373.48549,737.247769 C1405.19909,714.796554 1437.86709,693.709538 1471.17752,673.714935 C1504.48861,653.715055 1538.4408,634.802311 1572.75246,616.594755 C1641.38369,580.169088 1711.43433,546.573406 1781.04239,512.221082 L1783,516.212746 Z" id="Fill-41"></path>
                        <path d="M1784,498.203064 C1711.36835,534.120081 1638.01216,568.461461 1565.95671,605.380737 C1529.93195,623.836416 1494.23552,642.936074 1459.16605,663.137623 C1424.09922,683.335213 1389.65936,704.639972 1356.19325,727.397644 C1322.72583,750.149377 1290.2361,774.357321 1259.06888,800.18577 C1227.89969,826.006302 1198.06025,853.447998 1169.81494,882.456095 C1141.56237,911.456933 1114.90855,942.019554 1089.94577,973.909061 C1064.97507,1005.79527 1041.6941,1039.00111 1020,1073.22108 C1041.53653,1038.90346 1064.67115,1005.58347 1089.50735,973.566618 C1114.33696,941.547786 1140.87013,910.841326 1169.01787,881.681472 C1197.15836,852.51568 1226.9088,824.903751 1258.00349,798.90375 C1289.0949,772.895831 1321.52463,748.501819 1354.93931,725.561379 C1388.35466,702.615001 1422.75035,681.118895 1457.77564,660.731938 C1492.80225,640.341023 1528.4565,621.053317 1564.43115,602.414869 C1636.3877,565.131376 1709.6127,530.440954 1782.02152,494.221082 L1784,498.203064 Z" id="Fill-43"></path>
                        <path d="M1783,481.183714 C1707.73518,519.14218 1631.32927,554.658858 1556.06313,592.431422 C1518.43204,611.314407 1481.08506,630.765649 1444.34852,651.319124 C1407.61462,671.868643 1371.4918,693.526328 1336.36044,716.710789 C1301.22974,739.888659 1267.09708,764.597919 1234.3547,791.054799 C1201.60969,817.502449 1170.2655,845.697719 1140.62998,875.602371 C1110.98722,905.497795 1083.05972,937.094691 1056.96022,970.138598 C1030.85214,1003.17855 1006.57009,1037.6543 984,1073.22108 C1006.41319,1037.55608 1030.54891,1002.96562 1056.52382,969.795139 C1082.49082,936.620705 1110.299,904.87746 1139.84025,874.821184 C1169.37293,844.757657 1200.63142,816.38901 1233.30524,789.76139 C1265.97511,763.123881 1300.05107,738.22674 1335.13299,714.860331 C1370.21425,691.486011 1406.29554,669.63649 1442.98791,648.89909 C1479.68094,628.156417 1516.98507,608.519931 1554.5621,589.455657 C1629.72079,551.323154 1705.97772,515.467632 1780.9894,477.221082 L1783,481.183714 Z" id="Fill-45"></path>
                        <path d="M1783,463.16231 C1705.23542,503.486534 1625.8352,540.388478 1547.38762,579.133442 C1508.16383,598.505265 1469.17276,618.346579 1430.76844,639.275243 C1392.36675,660.19995 1354.55182,682.221238 1317.74292,705.835633 C1280.93535,729.442775 1245.13909,754.652257 1210.79982,781.737729 C1176.4579,808.81265 1143.5822,837.767518 1112.53399,868.579912 C1081.47721,899.383075 1052.25517,932.036512 1025.00368,966.262615 C997.742957,1000.4841 972.450152,1036.26573 949,1073.22108 C972.293905,1036.16682 997.439694,1000.27112 1024.56856,965.91709 C1051.68819,931.559766 1080.79354,898.757306 1111.75012,867.79259 C1142.69944,836.817983 1175.49142,807.688375 1209.76542,780.4308 C1244.03614,753.163334 1279.77833,727.765265 1316.53976,703.968215 C1353.30119,680.163254 1391.07525,657.9514 1429.43408,636.839423 C1467.79555,615.722172 1506.74113,595.697544 1545.90624,576.147684 C1624.23713,537.048622 1703.46661,499.81566 1780.94572,459.221082 L1783,463.16231 Z" id="Fill-47"></path>
                        <path d="M1783,445.129113 C1702.89936,488.12141 1620.56663,526.581022 1538.95706,566.343971 C1498.14864,586.226104 1457.51163,606.455486 1417.43757,627.750994 C1377.36484,649.040572 1337.8498,671.396936 1299.34796,695.406519 C1260.84876,719.407537 1223.36936,745.07034 1187.40615,772.736249 C1151.43963,800.390297 1117.00249,830.050086 1084.50144,861.716274 C1051.99183,893.37192 1021.4282,927.026716 992.968118,962.378881 C964.521876,997.748177 938.280692,1034.87019 914,1073.22108 C938.1238,1034.77135 964.219299,997.53403 992.534358,962.032291 C1020.86326,926.546367 1051.31218,892.741996 1083.72489,860.922939 C1116.12838,829.092681 1150.48642,799.255644 1186.38767,771.418417 C1222.28562,743.56933 1259.7136,717.71544 1298.16864,693.525314 C1336.62433,669.325303 1376.10048,646.777855 1416.1297,625.302462 C1456.15959,603.82114 1496.74716,583.408579 1537.49031,563.353151 C1618.97134,523.242295 1701.1096,484.461131 1780.88987,441.221082 L1783,445.129113 Z" id="Fill-49"></path>
                        <path d="M1785,424.093797 C1702.62426,470.361887 1617.27056,510.81266 1532.36836,551.885468 C1489.911,572.429129 1447.54395,593.15155 1405.70288,614.891787 C1363.8618,636.624109 1322.53749,659.371608 1282.22825,683.825582 C1241.91966,708.269662 1202.63339,734.432089 1164.92442,762.73767 C1127.21215,791.029398 1091.09235,821.470216 1057.0363,854.095084 C1022.97101,886.706759 990.981994,921.49259 961.261051,958.128036 C931.548018,994.776675 904.221704,1033.33891 879,1073.22108 C904.064831,1033.24063 931.245477,994.562294 960.82866,957.77909 C990.421072,921.008418 1022.29606,886.071531 1056.26709,853.293628 C1090.22823,820.502532 1126.27157,789.882953 1163.92188,761.405868 C1201.56955,732.91493 1240.80836,706.561208 1281.07279,681.926494 C1321.33919,657.282545 1362.62395,634.345071 1404.41889,612.428052 C1446.21448,590.503117 1488.52683,569.600615 1530.91168,548.88677 C1615.67084,507.472271 1700.80242,466.712789 1782.81761,420.221082 L1785,424.093797 Z" id="Fill-51"></path>
                        <path d="M1784,405.045135 C1741.84068,429.822071 1698.70452,452.864575 1655.12975,474.974624 C1611.55235,497.089945 1567.53302,518.282697 1523.52953,539.470176 C1479.5267,560.660291 1435.52848,581.843817 1392.0111,603.974295 C1348.49635,626.096865 1305.45056,649.162433 1263.41457,673.969682 C1221.38123,698.765728 1180.36363,725.316634 1140.9765,754.137721 C1101.58672,782.942993 1063.84523,814.025036 1028.29088,847.458973 C992.724662,880.877754 959.360761,916.637227 928.424093,954.390769 C897.492701,992.155514 869.123096,1031.98616 843,1073.22108 C868.965458,1031.88731 897.189957,991.940028 927.993391,954.040192 C958.801442,916.15156 992.053876,880.237886 1027.52775,846.651725 C1062.98976,813.049748 1100.6587,781.787145 1139.98911,752.796041 C1179.31688,723.788463 1220.28963,697.045135 1262.28077,672.059303 C1304.27454,647.062927 1347.28075,623.808891 1390.74669,601.502466 C1434.21527,579.19011 1478.15412,557.82866 1522.07583,536.471823 C1565.99885,515.117622 1609.9166,493.768693 1653.3621,471.513669 C1696.80363,449.263257 1739.77687,426.096206 1781.73832,401.221082 L1784,405.045135 Z" id="Fill-54"></path>
                        <path d="M1783,383.994889 C1740.01347,410.640389 1695.80546,435.232786 1651.00057,458.598465 C1606.19237,481.970739 1560.78399,504.128167 1515.29779,526.075866 C1469.81224,548.026202 1424.23567,569.763512 1379.08452,592.349632 C1333.93666,614.929815 1289.20299,638.360787 1245.46656,663.555991 C1201.73408,688.740642 1159.0028,715.707332 1117.95071,745.071397 C1076.89599,774.418316 1037.53894,806.172503 1000.4903,840.456631 C963.429124,874.722952 928.694166,911.508001 896.551882,950.441786 C864.408938,989.384145 835.008383,1030.5557 808,1073.22108 C834.851412,1030.45677 864.106866,989.16848 896.121858,950.08894 C928.13751,911.019293 962.762324,874.078595 999.734459,839.642116 C1036.6934,805.18915 1075.98054,773.251614 1116.9792,743.71805 C1157.97457,714.16536 1200.66298,687.006749 1244.3539,661.632154 C1288.04879,636.246348 1332.7409,612.62807 1377.83732,589.866517 C1422.93571,567.100347 1468.44764,545.188922 1513.84349,523.075683 C1559.24,500.965741 1604.53428,478.656622 1649.19539,455.153762 C1693.85321,431.656178 1737.8805,406.951002 1780.65004,380.221082 L1783,383.994889 Z" id="Fill-56"></path>
                        <path d="M1784,360.925686 C1740.29147,389.766746 1695.05826,416.205978 1649.02611,441.068824 C1602.98934,465.94156 1556.15365,489.25703 1509.12086,512.103079 C1462.08675,534.952425 1414.84566,557.34092 1367.95591,580.43025 C1321.07143,603.520899 1274.53237,627.331504 1228.96824,652.914965 C1183.40807,678.486558 1138.82612,705.850128 1095.96663,735.74277 C1053.10647,765.615634 1011.98986,798.032076 973.311569,833.17538 C934.620095,868.298906 898.390014,906.136768 864.935758,946.298661 C831.477547,986.467807 800.959956,1029.04669 773,1073.22108 C800.803729,1028.9478 831.176299,986.251556 864.507947,945.944617 C897.836299,905.644271 933.958933,867.648837 972.563395,832.354553 C1011.15467,797.039171 1052.20471,764.438784 1095.01147,734.377361 C1137.81757,704.296818 1182.35865,676.740733 1227.87795,650.979261 C1273.39989,625.206581 1319.89677,601.209395 1366.72455,577.940076 C1413.55761,554.673394 1460.72619,532.11414 1507.65945,509.107881 C1554.59138,486.104919 1601.29985,462.645722 1647.17248,437.651015 C1693.04115,412.666858 1738.07398,386.129391 1781.54652,357.221082 L1784,360.925686 Z" id="Fill-58"></path>
                        <path d="M1783,337.850538 C1738.71831,368.969484 1692.58319,397.358594 1645.42044,423.814674 C1598.25374,450.283936 1550.06468,474.841916 1501.54649,498.651202 C1453.02633,522.464442 1404.16713,545.544146 1355.58233,569.164281 C1307.00082,592.782438 1258.69238,616.975957 1211.32846,642.926537 C1163.96982,668.866571 1117.56031,696.589369 1072.91189,726.962256 C1028.26149,757.313395 985.39658,790.333076 945.096783,826.27504 C904.781156,862.193278 867.060325,901.021277 832.299697,942.348439 C797.532473,983.680874 765.9042,1027.60276 737,1073.22108 C765.74656,1027.50456 797.231044,983.463383 831.872947,941.992545 C866.508914,900.525662 904.124213,861.53883 944.355413,825.447258 C984.570784,789.33262 1027.37237,756.127082 1071.97133,725.586793 C1116.56896,695.024096 1162.94021,667.108852 1210.25664,640.980325 C1257.57834,614.841254 1305.84325,590.463198 1354.36276,566.66973 C1402.88491,542.874284 1451.66297,519.627838 1500.07167,495.663672 C1548.47773,471.703461 1596.52431,447.009055 1643.51029,420.429071 C1690.49165,393.862269 1736.40713,365.388799 1780.4362,334.221082 L1783,337.850538 Z" id="Fill-60"></path>
                        <path d="M1785,310.758311 C1740.3216,344.587434 1693.39148,375.349332 1645.14356,403.761866 C1596.89168,432.192858 1547.33256,458.301513 1497.27679,483.315908 C1397.16658,533.359199 1294.98404,579.09071 1196.36112,631.873607 C1147.06187,658.239348 1098.66885,686.357223 1052.06916,717.250959 C1005.46881,748.120965 960.687525,781.790563 918.607783,818.604511 C876.512211,855.391433 837.153141,895.310839 800.962584,937.934255 C764.763453,980.560967 731.923446,1025.98397 702,1073.22108 C731.766471,1025.88576 764.462695,980.342774 800.538489,937.575654 C836.60439,894.81183 875.861228,854.731581 917.875015,817.769973 C959.872972,780.780679 1004.59292,746.92387 1051.14578,715.864676 C1097.69666,684.780433 1146.05275,656.470074 1195.30913,629.916464 C1293.84828,576.759144 1395.92265,530.670351 1495.78026,480.337674 C1545.71137,455.179575 1595.11022,428.944355 1643.16225,400.416462 C1691.21098,371.907027 1737.90169,341.077891 1782.31099,307.221082 L1785,310.758311 Z" id="Fill-62"></path>
                        <path d="M1783,283.664915 C1738.17335,320.201875 1690.71429,353.409795 1641.61146,383.845496 C1592.50929,414.310886 1541.79565,442.053535 1490.40183,468.342782 C1387.60694,520.954921 1282.04518,567.786435 1179.87577,621.405335 C1128.80292,648.195983 1078.58557,676.688095 1030.18468,708.067222 C981.782463,739.419959 935.22504,773.690058 891.491156,811.320203 C847.740795,848.919341 806.857474,889.86797 769.342099,933.722085 C731.817498,977.580819 697.857252,1024.43542 667,1073.22108 C697.701048,1024.33778 731.517612,977.362446 768.919623,933.361209 C806.312407,889.365909 847.094888,848.253666 890.766817,810.478377 C934.420292,772.671422 980.921692,738.211978 1029.27645,706.669236 C1077.63187,675.098126 1127.81231,646.41469 1178.84231,619.437336 C1280.92473,565.447004 1386.36455,518.26319 1488.88065,465.375279 C1540.13672,438.949467 1590.67241,411.090704 1639.55774,380.542187 C1688.44504,350.02204 1735.6464,316.765958 1780.18964,280.221082 L1783,283.664915 Z" id="Fill-64"></path>
                        <path d="M1783,253.550956 C1738.17334,293.122152 1690.28263,329.129916 1640.36966,361.954935 C1590.44943,394.796448 1538.54058,424.47501 1485.71982,452.279158 C1380.05392,507.935617 1270.77274,556.106293 1164.66045,610.603531 C1111.61683,637.849511 1059.36577,666.713913 1008.94838,698.571705 C958.531002,730.400467 909.974996,765.258906 864.379521,803.715087 C818.764265,842.13564 776.158992,884.142717 737.147896,929.283057 C698.129547,974.430653 662.904503,1022.79398 631,1073.22108 C662.748234,1022.69502 697.829538,974.210949 736.726564,928.920841 C775.616997,883.636672 818.123366,841.464651 863.662136,802.865959 C909.181784,764.23164 957.683723,729.182527 1008.05627,697.16243 C1058.43013,665.113304 1110.64493,636.057567 1163.64306,608.627511 C1269.66501,553.76146 1378.80641,505.244403 1484.16241,449.329973 C1536.82953,421.39849 1588.54322,391.615023 1638.22871,358.706213 C1687.90563,325.814557 1735.52205,289.778423 1780.05463,250.221082 L1783,253.550956 Z" id="Fill-66"></path>
                        <path d="M1783,222.422968 C1738.41254,265.135656 1690.32207,304.120499 1639.77251,339.506021 C1614.50103,357.209987 1588.62681,374.038015 1562.30218,390.114015 C1535.97228,406.184082 1509.19131,421.49619 1482.11162,436.242135 C1427.94694,465.739957 1372.59526,492.940172 1317.05696,519.650019 C1261.51601,546.363821 1205.76536,572.617574 1150.73549,600.317383 C1095.71551,628.01126 1041.42027,657.221057 988.960939,689.508831 C936.504906,721.765626 885.918417,757.151149 838.423434,796.373925 C790.908009,835.556497 746.54344,878.567096 706.008963,924.950946 C665.471848,971.346659 628.960682,1021.18153 596,1073.22108 C628.803732,1021.08333 665.172457,971.12718 705.589552,924.587125 C746.004009,878.058933 790.272298,834.880265 837.714524,795.519078 C885.136308,756.116368 935.672679,720.539708 988.085188,688.091116 C1040.50165,655.612864 1094.76129,626.212589 1149.73246,598.334824 C1204.71354,570.453105 1260.40154,544.024032 1315.84818,517.15007 C1371.29285,490.279403 1426.51725,462.934846 1480.51179,433.319706 C1507.50642,418.514442 1534.19242,403.149606 1560.41549,387.036038 C1586.63329,370.917197 1612.39078,354.054897 1637.53499,336.325226 C1687.8333,300.89159 1735.63427,261.900156 1779.91904,219.221082 L1783,222.422968 Z" id="Fill-68"></path>
                        <path d="M1784,186.283335 C1739.898,232.48617 1691.84819,274.868441 1640.82747,313.236285 C1589.82192,351.650947 1535.91274,386.06437 1480.45939,417.594897 C1424.98889,449.134655 1367.99335,477.84229 1310.63701,505.676221 C1253.27473,533.515426 1195.52459,560.507963 1138.40703,588.780394 C1081.29013,617.031725 1024.80448,646.638782 970.160479,679.422827 C915.51846,712.168628 862.743816,748.134938 813.194699,788.204693 C763.625135,828.227632 717.352336,872.3494 675.169164,920.11699 C632.993907,967.905022 595.089671,1019.37844 561,1073.22108 C594.933341,1019.28019 632.6951,967.684123 674.751626,919.749704 C716.816068,871.837046 762.9952,827.545812 812.494845,787.341539 C861.972723,747.090448 914.700534,710.932253 969.301658,677.994567 C1023.90344,645.019295 1080.35347,615.222991 1137.41761,586.790984 C1194.4824,558.337877 1252.16327,531.172578 1309.41936,503.179073 C1366.67016,475.190843 1423.52454,446.346052 1478.80639,414.699472 C1534.0724,383.063441 1587.74743,348.576825 1638.48385,310.133149 C1689.23545,271.735632 1736.98315,229.369186 1780.77843,183.221082 L1784,186.283335 Z" id="Fill-70"></path>
                        <path d="M1784,147.127617 C1762.33194,172.055649 1739.59801,196.054829 1715.86083,219.013748 C1692.12628,241.975964 1667.39179,263.89594 1641.79247,284.74599 C1590.59976,326.477075 1535.94644,363.811111 1479.32749,397.68618 C1451.019,414.637558 1422.22141,430.753695 1393.11204,446.263342 C1364.00003,461.770353 1334.57031,476.660326 1304.99359,491.23453 C1245.83619,520.380959 1186.07368,548.227392 1126.83785,577.133863 C1067.61388,606.041652 1008.86253,636.006842 951.968705,669.27674 C895.074882,702.497855 840.030016,739.011812 788.343594,779.909632 C762.498405,800.343051 737.492992,821.844418 713.476327,844.405823 C689.458343,866.963272 666.429765,890.578782 644.471011,915.154128 C600.597009,964.361512 561.245536,1017.51437 526,1073.22108 C561.088655,1017.41549 600.299067,964.140011 644.056397,914.784301 C665.957144,890.135781 688.932329,866.441164 712.90549,843.799333 C736.876014,821.154206 761.841218,799.563844 787.653448,779.038793 C839.271317,737.958366 894.273337,701.250596 951.126952,667.838964 C1007.97991,634.37789 1066.695,604.22482 1125.86097,575.138381 C1185.03945,546.054578 1244.72418,518.040042 1303.76292,488.745287 C1333.28032,474.097249 1362.64149,459.138057 1391.67308,443.569079 C1420.70204,427.997464 1449.40668,411.826611 1477.61234,394.829087 C1534.02497,360.862386 1588.42452,323.472974 1639.33247,281.734639 C1664.79006,260.881292 1689.37757,238.968567 1712.9605,216.02481 C1736.54607,193.083031 1759.12576,169.112857 1780.63958,144.221082 L1784,147.127617 Z" id="Fill-72"></path>
                        <path d="M1784,102.962169 C1762.83598,129.851866 1740.52358,155.835784 1717.08191,180.758232 C1693.6442,205.682 1669.07788,229.540998 1643.49898,252.250786 C1617.92205,274.965191 1591.33452,296.528406 1563.91966,316.966819 C1536.50611,337.40919 1508.26852,356.726759 1479.41785,375.057405 C1421.7099,411.742447 1361.58191,444.409207 1300.58572,475.146321 C1239.57238,505.886074 1177.67962,534.771388 1116.189,564.445712 C1054.70233,594.110801 993.579563,624.606462 934.232766,658.355143 C874.895199,692.0682 817.403484,729.182711 763.389882,770.952122 C736.383082,791.823303 710.252402,813.835779 685.167925,836.99021 C660.082129,860.142662 636.039899,884.43113 613.150668,909.769194 C567.425604,960.509314 526.495801,1015.48344 490,1073.22108 C526.338245,1015.38448 567.126972,960.286333 612.737988,909.396459 C635.569866,883.985168 659.560676,859.615555 684.602303,836.378661 C709.641952,813.138468 735.735056,791.036931 762.709554,770.073391 C816.65921,728.119262 874.108734,690.810797 933.407407,656.907084 C992.71399,622.967088 1053.79853,592.284729 1115.22191,562.444818 C1176.64792,532.595011 1238.453,503.54609 1299.33383,472.665159 C1360.19687,441.788847 1420.1462,409.004659 1477.62803,372.24507 C1506.36598,353.876161 1534.47897,334.530884 1561.75935,314.07268 C1589.04039,293.618434 1615.48553,272.050601 1640.91478,249.344113 C1666.34602,226.641582 1690.76005,202.801715 1714.04417,177.905655 C1737.33157,153.012234 1759.48971,127.065919 1780.50145,100.221082 L1784,102.962169 Z" id="Fill-74"></path>
                        <path d="M1784,56.789062 C1763.44386,85.638278 1741.68106,113.627544 1718.67533,140.560338 C1695.67289,167.495109 1671.42687,193.368133 1646.01507,218.038941 C1620.60722,242.712387 1594.03425,266.18098 1566.47353,288.411086 C1538.91413,310.645149 1510.36961,331.642045 1481.06747,351.502012 C1422.45857,391.250305 1360.8561,426.348667 1298.05487,458.890921 C1235.24573,491.469445 1171.21542,521.542639 1107.43304,552.049106 C1043.65461,582.554253 980.080589,613.553345 918.236779,647.804287 C887.318501,664.922834 856.841347,682.845936 827.033463,701.832764 C797.228217,720.82223 768.114659,740.90312 739.897856,762.184247 C683.456338,804.720783 630.704704,852.223135 583.032267,904.444001 C559.202972,930.555754 536.62254,957.804434 515.301522,986.002092 C493.976548,1014.19909 473.90901,1043.34243 455,1073.22108 C473.829884,1043.29297 493.824232,1014.0949 515.079971,985.834587 C536.331754,957.574278 558.848885,930.257013 582.622133,904.070081 C630.181158,851.698856 682.847731,804.019765 739.227927,761.297259 C767.414398,739.923806 796.5029,719.747292 826.285068,700.662862 C856.071193,681.579751 886.529224,663.561027 917.427062,646.347516 C979.231309,611.906646 1042.76379,580.722243 1106.47166,550.045633 C1170.18415,519.367704 1234.11424,489.136237 1296.7737,456.425818 C1359.4259,423.75233 1420.83057,388.550431 1479.19352,348.744764 C1508.37301,328.857099 1536.78433,307.842398 1564.20263,285.602399 C1591.6229,263.367017 1618.04685,239.906338 1643.3037,215.250698 C1668.56451,190.599015 1692.65558,164.755667 1715.50306,137.858485 C1738.35581,110.963281 1759.96564,83.0195189 1780.3721,54.2210821 L1784,56.789062 Z" id="Fill-76"></path>
                        <path d="M1785,2.59980803 C1765.2096,33.6010849 1744.17905,63.8120918 1721.80286,92.9999695 C1699.43194,122.188507 1675.71273,150.349297 1650.66635,177.279166 C1600.60061,231.179803 1545.07384,279.901467 1485.78968,323.355104 C1426.49628,366.854257 1363.46463,404.985775 1298.8124,439.816365 C1234.145,474.684556 1167.84978,506.335596 1101.58686,537.915392 C1035.32197,569.492551 969.059049,601.122481 904.458243,635.962967 C872.162126,653.375953 840.288624,671.584487 809.089592,690.895968 C777.89122,710.203491 747.368636,730.617261 717.788861,752.332535 C658.627991,795.739996 603.309558,844.488046 553.487762,898.416389 C528.559392,925.356812 504.970732,953.534754 482.740903,982.74506 C460.505799,1011.95405 439.627548,1042.19078 420,1073.22108 C439.54909,1042.14197 460.353499,1011.84916 482.519376,982.576847 C504.680637,953.303214 528.207322,925.056008 553.079651,898.039064 C602.790025,843.958341 658.026704,795.031524 717.129554,751.43672 C746.68098,729.628434 777.179828,709.118354 808.357762,689.715181 C839.535696,670.307389 871.389419,652.003865 903.665757,634.495888 C968.226345,599.46674 1034.44377,567.654084 1100.62823,535.910033 C1166.81203,504.163343 1232.99187,472.360582 1297.49181,437.371673 C1361.97723,402.421025 1424.78736,364.203092 1483.81703,320.667658 C1542.83681,277.177081 1598.05964,228.471908 1647.8188,174.63064 C1672.71157,147.730456 1696.27584,119.608585 1718.49578,90.4655643 C1740.71967,61.3238627 1761.60122,31.1662881 1781.24591,0.22108209 L1785,2.59980803 Z" id="Fill-78"></path>
                        <path d="M1749,2.59981535 C1729.20949,33.6031665 1708.18154,63.8175646 1685.81,93.0114689 C1663.44374,122.205373 1639.73125,150.374826 1614.69035,177.312034 C1564.63029,231.221412 1509.12008,279.966314 1449.83755,323.42734 C1390.55172,366.941799 1327.51072,405.064859 1262.85055,439.883023 C1198.17259,474.736808 1131.8636,506.362219 1065.58626,537.915726 C999.307595,569.465935 933.030251,601.070896 868.419532,635.896316 C836.118787,653.3021 804.241291,671.506072 773.040203,690.815634 C741.839773,710.121897 711.31641,730.537049 681.738435,752.256348 C622.589076,795.682412 567.270714,844.43523 517.463816,898.382868 C492.541578,925.331291 468.959628,953.516575 446.733788,982.732248 C424.503993,1011.94792 403.628331,1042.18871 384,1073.22108 C403.550537,1042.13989 424.351703,1011.84304 446.512934,982.565354 C468.669551,953.285694 492.18953,925.030486 517.056389,898.005543 C566.751212,843.906183 621.987826,794.975257 681.079828,751.361189 C710.628795,729.548219 741.128425,709.036757 772.308417,689.634842 C803.488409,670.22897 835.346787,651.930007 867.627753,634.429892 C932.198257,599.41449 998.430112,567.627463 1064.629,535.909041 C1130.82658,504.189299 1197.02085,472.411507 1261.5307,437.437664 C1326.02407,402.500102 1388.84357,364.289967 1447.86437,320.739227 C1506.88253,277.242579 1562.08882,228.514828 1611.84166,174.66416 C1636.72829,147.755976 1660.28717,119.626763 1682.50246,90.4783752 C1704.72171,61.3299874 1725.60067,31.1683622 1745.24614,0.22108209 L1749,2.59981535 Z" id="Fill-80"></path>
                        <path d="M1714,2.59982266 C1694.20872,33.6052481 1673.18336,63.823697 1650.81648,93.0229684 C1628.45356,122.223559 1604.74779,150.399035 1579.71368,177.344242 C1529.65931,231.264341 1474.16566,280.030501 1414.88476,323.498918 C1355.60716,367.029342 1292.5568,405.144603 1227.88805,439.948361 C1163.20018,474.788401 1096.87676,506.388182 1030.58499,537.9154 C964.291907,569.439319 898.000797,601.018651 833.380166,635.830325 C801.074135,653.228906 769.193965,671.427656 737.99016,690.735958 C706.787014,710.040302 676.263531,730.456836 646.686696,752.180819 C587.549507,795.624828 532.231874,844.383073 482.439873,898.349348 C457.523766,925.306429 433.947866,953.499056 411.726675,982.720756 C389.501529,1011.9418 368.629114,1042.18663 349,1073.22108 C368.550666,1042.13716 389.349247,1011.83691 411.505834,982.552542 C433.658465,953.268174 457.171739,925.004963 482.031812,897.972021 C531.712404,843.854024 586.948293,794.917671 646.028129,751.284999 C675.575958,729.468003 706.076369,708.955158 737.258419,689.555164 C768.440469,670.150551 800.302181,651.85615 832.588435,634.362577 C897.169513,599.36224 963.415136,567.600182 1029.62846,535.908709 C1095.84046,504.214596 1162.04917,472.463093 1226.56894,437.503655 C1291.07025,402.579178 1353.8991,364.377502 1412.9117,320.811455 C1471.92759,277.307417 1527.11799,228.557088 1576.86517,174.697679 C1601.74567,147.781497 1625.29718,119.644941 1647.50849,90.4898669 C1669.72308,61.3367719 1690.59945,31.1704363 1710.24637,0.22108209 L1714,2.59982266 Z" id="Fill-82"></path>
                        <path d="M1679,2.59983143 C1659.20794,33.6066906 1638.18519,63.8292089 1615.82296,93.034525 C1593.46535,122.240501 1569.76564,150.423997 1544.73767,177.377219 C1494.68898,231.306092 1439.21124,280.095521 1379.93262,323.570694 C1320.66324,367.116452 1257.60354,405.224597 1192.92554,440.01529 C1128.22842,474.840946 1061.88992,506.415116 995.584391,537.916064 C929.27688,569.413713 862.971346,600.966774 798.341464,635.763405 C766.030807,653.154794 734.146644,671.348994 702.940782,690.656047 C671.73558,709.958483 641.211318,730.377071 611.636282,752.104433 C552.505988,795.563115 497.201608,844.339351 447.415933,898.316379 C422.506616,925.281475 398.936764,953.481463 376.720221,982.709867 C354.499723,1011.93629 333.629897,1042.1852 314,1073.22108 C333.551454,1042.13572 354.347451,1011.83075 376.499394,982.541653 C398.647381,953.250581 422.153951,924.980669 447.007897,897.939711 C496.68151,843.8103 551.904151,794.855955 610.977756,751.209929 C640.523787,729.388894 671.024319,708.873995 702.209086,689.475248 C733.393194,670.072543 765.259559,651.782032 797.550441,634.296971 C862.141431,599.310357 928.401481,567.57391 994.62923,535.908706 C1060.85566,504.240863 1127.07814,472.51497 1191.60716,437.569915 C1256.11839,402.658503 1318.95463,364.465261 1377.95836,320.883882 C1436.9733,277.372427 1492.14716,228.600809 1541.88801,174.730646 C1566.76239,147.806449 1590.30851,119.662533 1612.51517,90.5020739 C1634.72578,61.3429343 1655.5989,31.1718698 1675.2466,0.22108209 L1679,2.59983143 Z" id="Fill-84"></path>
                        <path d="M1644,2.59983728 C1624.20783,33.6087517 1603.18767,63.8353023 1580.8301,93.0459675 C1558.47715,122.257952 1534.78349,150.448774 1509.76166,177.409978 C1459.71931,231.348879 1404.25747,280.160197 1344.98048,323.642733 C1285.718,367.20443 1222.65093,405.304093 1157.96368,440.081679 C1093.256,474.892248 1026.90374,506.441428 960.583787,537.915407 C894.262514,569.386747 827.942559,600.914819 763.302766,635.697022 C730.986825,653.080538 699.099328,671.269505 667.891411,690.575287 C636.684812,709.877771 606.157792,730.29443 576.587193,752.030421 C517.460496,795.499105 462.171346,844.29525 412.392655,898.282306 C387.489467,925.255385 363.925664,953.463358 341.713768,982.696452 C319.497918,1011.92955 298.63068,1042.18248 279,1073.22108 C298.552242,1042.13367 319.345656,1011.824 341.492955,982.528896 C363.636299,953.232475 387.136824,924.954577 411.984644,897.905637 C461.65128,843.766198 516.858696,794.791283 575.928706,751.135914 C605.470303,729.305591 635.973594,708.79262 667.159759,689.394485 C698.346584,669.993052 730.216283,651.707113 762.51245,634.229266 C827.112035,599.257738 893.387168,567.546939 959.628685,535.908044 C1025.8702,504.26651 1092.1071,472.566925 1156.64539,437.635638 C1221.16522,402.737993 1284.01016,364.551913 1343.00634,320.955914 C1402.01967,277.437756 1457.17567,228.64293 1506.91151,174.764058 C1531.77977,147.831879 1555.31984,119.679978 1577.52185,90.5141699 C1599.72781,61.3490216 1620.59835,31.1739249 1640.24682,0.22108209 L1644,2.59983728 Z" id="Fill-86"></path>
                        <path d="M1609,2.59984606 C1589.19255,33.6108538 1568.16024,63.8408143 1545.79028,93.0575243 C1523.4256,122.274894 1499.72063,150.473076 1474.6866,177.442956 C1424.61325,231.390631 1369.12797,280.224557 1309.8085,323.714511 C1250.51146,367.2922 1187.38881,405.383428 1122.64554,440.148608 C1057.87985,474.944793 991.465186,506.467703 925.082182,537.915412 C858.697859,569.360481 792.315515,600.862942 727.61842,635.630101 C662.936496,670.35702 599.939162,708.443631 540.75689,751.957992 C481.588469,795.433433 426.276005,844.252846 376.465832,898.249997 C351.551181,925.230431 327.976814,953.445765 305.752627,982.685563 C283.525141,1011.92404 262.645195,1042.18105 243,1073.22108 C262.566704,1042.13157 283.372776,1011.81915 305.531664,982.517348 C327.686595,953.214881 351.198301,924.930282 376.057546,897.872667 C425.755589,843.723792 480.986265,794.726928 540.097301,751.062822 C599.222189,707.360455 662.184565,669.077924 726.827573,634.162999 C791.485092,599.205195 857.823904,567.520007 924.127757,535.908041 C990.430951,504.292777 1056.73085,472.618802 1121.32702,437.701899 C1185.90209,402.817318 1248.80247,364.639674 1307.8337,321.028342 C1366.88735,277.502766 1422.06855,228.685991 1471.83453,174.797686 C1496.71489,147.856831 1520.26551,119.698229 1542.47914,90.526377 C1564.69739,61.3551841 1585.58064,31.1766777 1605.2443,0.22108209 L1609,2.59984606 Z" id="Fill-88"></path>
                        <path d="M1574,2.59985337 C1554.19177,33.6129355 1533.16206,63.8469469 1510.79742,93.0696837 C1488.43674,122.291761 1464.73849,150.497946 1439.71126,177.475824 C1389.64293,231.432901 1334.17422,280.289406 1274.85639,323.78675 C1215.56757,367.379745 1152.4349,405.463174 1087.68239,440.215268 C1022.90744,474.997047 956.479011,506.494327 890.081578,537.915745 C823.683486,569.333865 757.286713,600.810036 692.580363,635.563449 C627.889183,670.276622 564.882491,708.355433 505.709096,751.88576 C446.542296,795.368591 391.246388,844.209924 341.443202,898.215816 C316.533364,925.205568 292.965709,953.428245 270.746171,982.673411 C248.523335,1011.91726 227.645979,1042.17831 208,1073.22108 C227.568152,1042.1295 248.370979,1011.81237 270.525222,982.505195 C292.675507,953.19802 316.181165,924.904759 341.034282,897.839804 C390.726004,843.680868 445.940128,794.660764 505.050206,750.990587 C564.165561,707.272914 627.137298,668.997521 691.788905,634.095022 C756.457001,599.152944 822.809584,567.493385 889.127871,535.907049 C955.446158,504.319394 1021.75983,472.67039 1086.36527,437.768551 C1150.9496,402.897057 1213.85868,364.727211 1272.88104,321.099912 C1331.93308,277.567606 1387.09707,228.728912 1436.85805,174.831206 C1461.73161,147.882353 1485.27684,119.715748 1507.48583,90.5385286 C1529.69943,61.3613091 1550.58074,31.1787519 1570.24453,0.22108209 L1574,2.59985337 Z" id="Fill-90"></path>
                        <path d="M1538,2.59986214 C1518.191,33.614378 1497.16454,63.8531187 1474.8039,93.080581 C1452.44788,122.309363 1428.75569,150.522248 1403.73459,177.508802 C1353.67261,231.474653 1298.22047,280.354428 1238.90426,323.858528 C1179.62037,367.462899 1116.48363,405.546469 1051.72054,440.281539 C986.936351,475.049593 920.492834,506.521262 854.080975,537.915749 C787.668455,569.307598 721.257915,600.758158 656.540992,635.496527 C591.841217,670.196634 528.827145,708.26767 469.661307,751.81267 C410.496788,795.302918 355.216774,844.167519 305.419256,898.182846 C280.516869,925.180615 256.954604,953.410652 234.740375,982.661862 C212.521529,1011.91241 191.647422,1042.17688 172,1073.22108 C191.56894,1042.12807 212.369183,1011.80687 234.51944,982.494305 C256.66508,953.179766 280.164032,924.879804 305.01036,897.806833 C354.696422,843.639122 409.894656,794.596408 469.001798,750.918154 C528.1096,707.185147 591.090036,668.917529 655.750901,634.028755 C720.428912,599.1004 786.795266,567.466451 853.128644,535.907046 C919.460703,504.346321 985.788806,472.722267 1050.40416,437.834813 C1114.99908,402.979682 1177.91158,364.810355 1236.92903,321.173 C1295.9788,277.633277 1351.12625,228.771314 1400.88156,174.864834 C1425.74965,147.907965 1449.28752,119.73334 1471.49251,90.5500762 C1493.70146,61.3674717 1514.58019,31.1808451 1534.24476,0.22108209 L1538,2.59986214 Z" id="Fill-92"></path>
                        <path d="M1503,2.59986946 C1483.19088,33.6164597 1462.16635,63.8585917 1439.81102,93.0920809 C1417.45898,122.32689 1393.7735,150.547118 1368.75786,177.541011 C1343.73432,204.527648 1317.35227,230.24573 1289.82868,254.663594 C1262.30047,279.078158 1233.60105,302.16018 1203.95199,323.930768 C1144.67167,367.543189 1081.53347,405.630834 1016.75846,440.348859 C951.96367,475.102507 885.505699,506.548546 819.080041,537.916083 C752.653064,569.281641 686.228726,600.70591 621.50186,635.429873 C556.793459,670.116234 493.770001,708.179471 434.613009,751.740437 C375.450081,795.238075 320.187252,844.124596 270.395377,898.149984 C245.49845,925.155092 221.942883,953.393132 199.733951,982.64971 C177.519084,1011.90563 156.647555,1042.17547 137,1073.22108 C156.569078,1042.12533 177.366747,1011.80074 199.51237,982.481493 C221.653376,953.162246 245.146294,924.85494 269.986506,897.77265 C319.666272,843.596197 374.847986,794.530904 433.95354,750.845918 C493.053158,707.096285 556.042983,668.837125 620.712475,633.961437 C685.400433,599.047488 751.781247,567.439829 818.128427,535.906714 C884.475608,504.372279 950.817513,472.773855 1015.44282,437.901466 C1080.049,403.063379 1142.96233,364.890637 1201.97622,321.244572 C1231.49272,299.456833 1260.04904,276.370853 1287.42887,251.963545 C1314.8054,227.553598 1341.0338,201.854646 1365.90434,174.898354 C1390.76632,147.933487 1414.29814,119.751519 1436.49916,90.562228 C1458.70348,61.3742564 1479.57962,31.1829193 1499.24498,0.22108209 L1503,2.59986946 Z" id="Fill-94"></path>
                        <path d="M1468,2.59987677 C1448.1901,33.6185414 1427.16883,63.8640647 1404.8175,93.1035809 C1382.47078,122.344416 1358.79135,150.571988 1333.78186,177.573881 C1308.75786,204.56192 1282.38664,230.292615 1254.86604,254.71649 C1227.34281,279.139046 1198.64711,302.227076 1168.99985,324.003008 C1139.35457,345.784218 1108.76368,366.259927 1077.46323,385.557454 C1046.16938,404.870813 1014.19434,423.053485 981.795951,440.41618 C916.991912,475.154762 850.519519,506.57517 784.079438,537.915757 C717.638697,569.255024 651.199934,600.653663 586.463157,635.36256 C521.746163,670.035834 458.71335,708.090612 399.564572,751.667544 C340.403925,795.171912 285.158305,844.081673 235.372096,898.116462 C210.481959,925.129569 186.9331,953.374952 164.727498,982.638217 C142.517279,1011.8995 121.648338,1042.17273 102,1073.22108 C121.569866,1042.12392 142.364951,1011.79461 164.50593,982.469999 C186.642292,953.144725 210.128506,924.829416 234.963251,897.739787 C284.637357,843.553271 339.801207,794.465399 398.905144,750.772363 C457.996551,707.008082 520.995074,668.756721 585.673821,633.894119 C650.371692,598.994576 716.766932,567.412547 783.129201,535.907041 C849.490151,504.398236 915.846484,472.826103 980.48105,437.968119 C1045.09913,403.147737 1108.0139,364.971579 1167.0242,321.317464 C1196.53825,299.52438 1225.09086,276.432392 1252.46572,252.017093 C1279.83861,227.601133 1306.05684,201.890229 1330.92785,174.931215 C1355.7837,147.959008 1379.30947,119.769038 1401.50519,90.5743799 C1423.70551,61.3797218 1444.57907,31.1849935 1464.24521,0.22108209 L1468,2.59987677 Z" id="Fill-96"></path>
                        <path d="M1433,2.59988554 C1413.18933,33.6199839 1392.17066,63.8702366 1369.82398,93.1151381 C1347.48191,122.361359 1323.80788,150.596951 1298.80519,177.606859 C1273.78073,204.596317 1247.42101,230.340301 1219.9034,254.770203 C1192.38514,279.200765 1163.69316,302.295477 1134.04705,324.074788 C1104.40226,345.858717 1073.81586,366.342418 1042.51204,385.638697 C1011.21548,404.950148 979.23777,423.12827 946.834754,440.482452 C882.019491,475.207309 815.533337,506.602106 749.078834,537.916421 C682.623672,569.228098 616.169828,600.601124 551.42446,635.296296 C486.698874,669.955845 423.656707,708.002847 364.516801,751.595773 C305.357774,795.107558 250.128702,844.039268 200.348159,898.083492 C175.464811,925.105274 151.922,953.358018 129.721045,982.626008 C107.515474,1011.894 86.6491213,1042.1713 67,1073.22108 C86.570654,1042.12182 107.363155,1011.78845 129.49949,982.45845 C151.63121,953.12779 175.112038,924.80512 199.939998,897.706815 C249.607785,843.511524 304.755093,794.400381 363.857413,750.700588 C422.939951,706.920313 485.94783,668.676067 550.635831,633.82719 C615.343614,598.942031 681.752619,567.386273 748.129315,535.907038 C814.504691,504.424504 880.875452,472.879301 945.519933,438.034382 C977.838547,420.620829 1009.71801,402.391252 1040.90379,383.038901 C1072.09683,363.703041 1102.55993,343.189655 1132.07152,321.389234 C1161.58378,299.592771 1190.13333,276.493442 1217.50389,252.070796 C1244.87247,227.648809 1271.07921,201.924616 1295.95135,174.964844 C1320.80041,147.983962 1344.3208,119.78729 1366.51187,90.5865874 C1388.70821,61.3858845 1409.57852,31.1870868 1429.24544,0.22108209 L1433,2.59988554 Z" id="Fill-98"></path>
                        <path d="M1397,2.59989139 C1377.18921,33.6220451 1356.17312,63.8763303 1333.83043,93.1272408 C1311.49235,122.378151 1287.82568,150.621069 1262.82911,177.63962 C1237.80418,204.631123 1211.45462,230.387704 1183.94066,254.823604 C1156.42735,279.261482 1127.73908,302.362848 1098.09476,324.14749 C1068.44978,345.932132 1037.8672,366.425119 1006.56132,385.718146 C975.262028,405.028326 943.280313,423.202534 910.872659,440.549503 C846.046801,475.259933 779.546856,506.628419 713.077901,537.916424 C646.608286,569.201131 580.140649,600.547847 515.384682,635.227932 C450.650474,669.875032 387.600901,707.913552 328.46852,751.521757 C298.897385,773.296504 270.294173,796.393251 242.876471,820.83245 C215.464044,845.274286 189.205476,871.022951 164.324948,898.049418 C139.446398,925.079182 115.910283,953.339912 93.7139638,982.613911 C71.5130294,1011.88725 50.6499138,1042.16858 31,1073.22108 C50.5707919,1042.11911 71.3607198,1011.78236 93.4924226,982.445693 C115.620829,953.109024 139.093647,924.779028 163.916152,897.67274 C188.741295,870.57041 214.95107,844.739945 242.321299,820.21037 C269.696803,795.684094 298.266388,772.495651 327.808512,750.62723 C386.88353,706.831015 449.900135,668.595251 514.59676,633.759482 C579.314485,598.88875 645.739264,567.358642 712.129757,535.906376 C778.518931,504.450812 844.904149,472.930599 909.558577,438.101427 C941.881834,420.694427 973.765965,402.469423 1004.95316,383.119004 C1036.14894,363.785076 1066.6069,343.263063 1096.11935,321.461269 C1125.62982,299.660795 1154.17501,276.554812 1181.54063,252.124849 C1208.90624,227.696866 1235.10283,201.960075 1259.97479,174.998257 C1284.81707,148.009393 1308.33143,119.804736 1330.51852,90.5986839 C1352.71022,61.3926317 1373.57861,31.189142 1393.24567,0.22108209 L1397,2.59989139 Z" id="Fill-100"></path>
                        <path d="M1362,2.59951873 C1342.27425,33.4763225 1321.35818,63.5952717 1299.13044,92.7222162 C1276.90665,121.84982 1253.36791,149.982122 1228.51025,176.903439 C1203.6084,203.781884 1177.41995,229.463855 1150.05964,253.824692 C1122.70262,278.190146 1094.1777,301.231828 1064.69921,322.964249 C1035.21873,344.69667 1004.80249,365.143574 973.670727,384.409834 C942.536989,403.678732 910.718072,421.811838 878.468528,439.113877 C813.962846,473.733783 747.76565,504.991823 681.572411,536.107393 C615.376534,567.217688 549.154938,598.324684 484.593202,632.67944 C420.046633,666.995281 357.152669,704.645287 298.049278,747.737467 C238.949844,790.779519 183.683848,839.170745 133.82344,892.693484 C108.889939,919.44529 85.2793135,947.425889 62.9974987,976.424875 C40.7110677,1005.42188 19.7508096,1035.43266 0,1066.22108 C19.6729933,1035.38319 40.559392,1005.31635 62.7772393,976.255364 C84.9911297,947.193058 108.539107,919.142544 133.416554,892.314887 C183.166172,838.639785 238.350396,790.069154 297.393776,746.839782 C356.440453,703.559622 419.300125,665.713063 483.807785,631.209242 C548.331933,596.665187 614.509345,565.374168 680.624768,534.097001 C746.737553,502.815217 812.817365,471.406134 877.152247,436.667503 C909.316061,419.306103 941.0354,401.12221 972.05769,381.814396 C1003.07866,362.507242 1033.37093,342.031976 1062.71819,320.282407 C1092.06282,298.533497 1120.44529,275.487857 1147.65459,251.130318 C1174.86718,226.777396 1200.9033,201.115212 1225.65215,174.265129 C1250.35682,147.373493 1273.74191,119.279447 1295.81599,90.1960342 C1317.89404,61.1126218 1338.66239,31.0444601 1358.24504,0.22108209 L1362,2.59951873 Z" id="Fill-102"></path>
                        <path d="M1327,3.59818397 C1289.04464,62.9571733 1246.66491,119.58243 1199.1353,171.651903 C1175.37115,197.673456 1150.41318,222.603362 1124.35045,246.317029 C1098.29167,270.035312 1071.13076,292.535378 1043.05108,313.810638 C986.894343,356.397414 927.077679,393.961029 865.421488,427.952399 C803.74485,461.967501 740.295959,492.56659 676.636007,522.555912 C612.976055,552.558418 549.044362,581.986096 486.363206,613.94447 C423.688645,645.861974 362.232301,680.347091 303.806003,719.546199 C274.594502,739.129273 246.149417,759.863324 218.694999,781.846572 C191.238602,803.823887 164.776831,827.049082 139.476554,851.481286 C114.17232,875.908876 90.0315601,901.540837 67.118911,928.226871 C44.2023044,954.909609 22.5124899,982.642464 2,1011.22108 C22.4366399,982.589068 44.0558809,954.795566 66.9085095,928.045589 C89.7558617,901.293634 113.837921,875.588501 139.090049,851.081807 C164.33822,826.571816 190.754481,803.262243 218.172623,781.197253 C245.588126,759.12633 274.001553,738.299991 303.184692,718.624627 C361.555587,679.240281 422.974995,644.563335 485.604046,612.460594 C548.240352,580.318301 612.116641,550.711978 675.685573,520.547966 C739.255164,490.396479 802.576759,459.651705 864.075314,425.52322 C925.554742,391.417807 985.141217,353.775746 1041.03412,311.157987 C1068.98124,289.866907 1096.001,267.362226 1121.91533,243.651195 C1147.8323,219.94346 1172.64186,195.032012 1196.25563,169.036828 C1243.48778,117.021409 1285.57071,60.4811903 1323.24443,1.22108209 L1327,3.59818397 Z" id="Fill-104"></path>
                        <path d="M1292,2.59897135 C1273.67176,31.2780567 1254.33009,59.3102455 1233.86619,86.5076012 C1213.39965,113.698363 1191.84846,140.0899 1169.03262,165.349204 C1146.25436,190.638181 1122.36047,214.920875 1097.42148,238.07661 C1072.48646,261.235643 1046.50899,283.264419 1019.64467,304.142498 C992.782998,325.025193 965.03778,344.75653 936.611443,363.433446 C908.185765,382.114977 879.081605,399.744066 849.508641,416.524473 C790.363371,450.118258 729.33365,480.192029 667.949852,509.340626 C606.556164,538.493179 544.751694,566.746275 483.834064,596.829937 C422.928303,626.898433 362.924546,658.936633 305.374928,695.051403 C276.603745,713.097908 248.456317,732.149377 221.142321,752.339675 C193.827665,772.525356 167.350396,793.851845 141.886564,816.334306 C116.420095,838.813471 91.9703595,862.44663 68.6395579,887.140146 C45.3054596,911.831684 23.0909549,937.580282 2,964.221082 C23.0184253,937.522912 45.1650159,911.711009 68.4377937,886.950232 C91.7066154,862.186157 116.100306,838.477164 141.517982,815.918209 C166.933021,793.355297 193.368091,771.943743 220.646482,751.669698 C247.922895,731.391037 276.039992,712.249886 304.783481,694.110403 C362.277713,657.812312 422.23993,625.586175 483.093603,595.336338 C543.959803,565.072652 605.699655,536.644149 666.99378,507.333993 C728.279333,478.027794 789.173226,447.812906 848.135193,414.109656 C907.099799,380.466413 964.137753,343.336787 1017.59604,301.513368 C1044.32914,280.619463 1070.16749,258.58607 1094.96075,235.433632 C1119.75665,212.283832 1143.50549,188.018283 1166.13737,162.751726 C1188.80749,137.51748 1210.21296,111.158255 1230.53576,84.0044211 C1250.85592,56.8446526 1270.05583,28.8546671 1288.24626,0.22108209 L1292,2.59897135 Z" id="Fill-106"></path>
                        <path d="M1256,2.59973899 C1238.28837,30.3250102 1219.63532,57.4493507 1199.93933,83.8019139 L1192.50158,93.6443819 L1188.7827,98.5659457 C1187.55516,100.215702 1186.2406,101.798835 1184.97351,103.418248 C1179.85107,109.853022 1174.77083,116.322098 1169.61411,122.728509 L1153.82356,141.687842 C1152.52482,143.282189 1151.145,144.808593 1149.79879,146.362042 L1145.73974,151.007217 L1137.6223,160.296908 C1115.76393,184.882299 1092.86262,208.53694 1068.97375,231.147374 C1045.08751,253.759126 1020.21634,275.323373 994.491426,295.807791 C943.050175,336.808289 888.189352,373.362824 831.408769,406.442382 C774.620934,439.55822 715.960807,469.283515 656.746903,497.689534 C597.534317,526.123916 537.779162,553.371609 478.649642,581.916152 C419.526716,610.447501 360.996462,640.321216 304.484198,673.758957 C247.966,707.137332 193.47568,744.080393 142.501843,785.491847 C117.011628,806.180093 92.3969075,827.954764 68.7855783,850.772324 C45.1709527,873.587905 22.559718,897.444396 1,922.221082 C22.4898367,897.384368 45.0364641,873.460595 68.5917564,850.573113 C92.1457302,827.682993 116.70705,805.831144 142.151776,785.059783 C193.031999,743.486059 247.455734,706.363575 303.917895,672.803141 C360.374782,639.183339 418.859547,609.124266 477.923799,580.416133 C536.994645,551.693489 596.676622,524.276269 655.782408,495.686871 C714.890172,467.127157 773.40724,437.263997 830.007186,404.043276 C886.601858,370.858835 941.231281,334.231741 992.412785,293.201558 C1018.00716,272.702628 1042.74253,251.133764 1066.489,228.52597 C1090.23812,205.921473 1112.99637,182.280684 1134.71167,157.717061 L1142.77637,148.436605 L1146.80774,143.796047 C1148.14537,142.243258 1149.51597,140.719493 1150.80614,139.126465 L1166.48923,120.186921 C1171.61101,113.788426 1176.65565,107.325947 1181.74183,100.899088 C1183.00035,99.2816537 1184.30568,97.7011595 1185.52465,96.0533822 L1189.21715,91.1384148 L1196.6015,81.3071606 C1216.15576,54.9895582 1234.67036,27.9041365 1252.24618,0.22108209 L1256,2.59973899 Z" id="Fill-108"></path>
                        <path d="M1221,2.59954659 C1203.87338,29.4011347 1185.87247,55.6427349 1166.90099,81.1706638 L1159.73385,90.7043094 C1157.33843,93.8775741 1154.98455,97.0818394 1152.49221,100.179911 L1137.71552,118.906857 L1122.52146,137.296094 L1120.61791,139.590791 L1118.66624,141.844594 L1114.76288,146.353519 L1106.95684,155.370709 C1064.98855,203.169535 1019.03053,247.452771 969.715105,287.595131 C920.424733,327.7863 867.846842,363.815486 813.321231,396.438574 C758.794301,429.101237 702.358553,458.411228 645.270708,486.22462 C588.171653,514.04131 530.406655,540.417465 473.053751,567.63789 C415.702825,594.847761 358.733663,622.933562 303.335731,653.941985 C247.950987,684.93128 194.189563,718.946093 143.396532,757.045717 C92.5876771,795.100489 44.8269974,837.26118 1,883.221082 C44.6924899,837.133221 92.3417395,794.821485 143.062242,756.601816 C193.768238,718.336636 247.464387,684.142416 302.791768,652.972395 C358.132335,621.784564 415.051387,593.516718 472.337038,566.132716 C529.625325,538.738161 587.310542,512.19513 644.294869,484.226736 C701.268647,456.264278 757.554723,426.821051 811.891101,394.056152 C866.226819,361.331488 918.573278,325.233046 967.605844,285.012855 C1016.66544,244.840814 1062.34258,200.568131 1104.03064,152.80888 L1111.7846,143.798945 L1115.66158,139.294637 L1117.60007,137.042154 L1119.49042,134.750095 L1134.57965,116.379326 L1149.25151,97.6734874 C1151.72671,94.5787133 1154.06278,91.3777459 1156.44106,88.2077791 L1163.55611,78.686006 C1182.38912,53.1890776 1200.25355,26.9837546 1217.24566,0.22108209 L1221,2.59954659 Z" id="Fill-110"></path>
                        <path d="M1186,2.59938816 C1169.41781,28.5358513 1152.01832,53.9506173 1133.71511,78.7032037 L1126.7974,87.9453565 C1124.47874,91.0168405 1122.22341,94.1358115 1119.81834,97.1413414 L1105.57657,115.314343 L1090.93638,133.168787 C1088.52603,136.17036 1085.96726,139.04596 1083.47512,141.978281 L1075.95713,150.738309 C1035.57754,197.216846 991.463026,240.448462 944.132078,279.807911 C896.825538,319.20891 846.359291,354.713339 793.934555,386.899616 C741.509159,419.122828 687.162212,448.071416 632.063929,475.354663 C576.962347,502.659014 521.087,528.31913 465.44187,554.427074 C409.799379,580.530401 354.358739,607.109257 300.161532,636.095439 C273.064578,650.584244 246.284254,665.668614 219.97096,681.537838 C193.658325,697.405743 167.830531,714.082246 142.620825,731.653746 C92.194817,766.775641 44.3288966,805.626583 0,848.221082 C44.1996059,805.493356 91.9606426,766.487422 142.302216,731.198003 C167.469704,713.54406 193.260559,696.780498 219.539551,680.824874 C245.818544,664.86793 272.568524,649.693863 299.635794,635.116021 C353.773632,605.951103 409.159522,579.19351 464.731431,552.918703 C520.305319,526.639938 576.092933,500.815596 631.074459,473.364167 C686.052687,445.934502 740.243957,416.856644 792.476077,384.534501 C844.708197,352.249293 894.942907,316.67825 941.995484,277.248231 C989.071807,237.859103 1032.91125,194.636061 1073.01577,148.193139 L1080.4823,139.439706 C1082.9573,136.509364 1085.49892,133.636402 1087.89145,130.637467 L1102.42874,112.799512 L1116.5676,94.6449774 C1118.95552,91.6434048 1121.19436,88.5270719 1123.49587,85.4595452 L1130.36213,76.2279451 C1148.52945,51.5030593 1165.79371,26.12193 1182.24397,0.22108209 L1186,2.59938816 Z" id="Fill-112"></path>
                        <path d="M1151,2.59895278 C1134.98369,27.6562762 1118.20843,52.228266 1100.5918,76.1883136 L1093.93274,85.1340135 L1090.60287,89.6068634 L1088.93464,91.840321 L1087.22224,94.0408075 L1073.52364,111.642722 L1059.45975,128.954491 C1057.14071,131.859898 1054.70629,134.670348 1052.30219,137.506516 L1045.08001,146.00381 C1006.32898,191.122027 964.09708,233.251091 918.800388,271.777739 C873.525457,310.340656 825.233867,345.272803 774.983921,376.998187 C724.735954,408.757202 672.567216,437.341767 619.55843,464.12875 C513.52701,517.748877 404.126163,564.238689 298.504218,618.521533 C245.702476,645.631633 193.852218,674.694937 144.057904,707.037539 C94.2649079,739.352445 46.584562,774.991491 2,814.221082 C46.4619176,774.853013 94.0426972,739.055706 143.754589,706.571988 C193.467141,674.061893 245.254098,644.821205 297.995177,617.534381 C403.495138,562.898746 512.777296,516.054166 618.553536,462.147191 C671.435063,435.217113 723.444231,406.507259 773.496363,374.651969 C823.551132,342.830968 871.612599,307.834198 916.635648,269.242267 C961.682434,230.686604 1003.64399,188.562156 1042.126,143.474932 L1049.29806,134.983573 C1051.68435,132.150043 1054.1023,129.34223 1056.40419,126.438801 L1070.36654,109.14088 L1083.96491,91.5561107 L1085.66478,89.3576024 L1087.32049,87.1267825 L1090.62529,82.6578891 L1097.23359,73.7214211 C1114.71636,49.7877504 1131.35974,25.2460939 1147.2455,0.22108209 L1151,2.59895278 Z" id="Fill-114"></path>
                        <path d="M1116,3.59830398 C1100.49997,27.8425392 1084.29113,51.6332168 1067.29898,74.8569475 L1060.87492,83.5272809 L1057.66256,87.8624476 L1056.05704,90.0300309 L1054.408,92.1659707 L1041.20251,109.236349 C1036.7176,114.86099 1032.17269,120.438826 1027.66075,126.042372 C1026.52337,127.435347 1025.41896,128.855352 1024.25388,130.225913 L1020.77778,134.3521 L1013.82426,142.604475 C976.545848,186.448595 936.012877,227.532474 892.558979,265.255544 C849.126839,303.010917 802.810696,337.379771 754.549466,368.658763 C706.290873,399.96874 656.12148,428.215225 605.042183,454.571668 C502.862487,507.351136 397.082074,552.542084 294.196213,603.707072 C242.757569,629.275062 192.033661,656.360625 142.9911,686.297403 C93.9459012,716.202538 46.6202911,749.004377 2,785.221082 C46.5029265,748.860662 93.7349088,715.89731 142.700985,685.824069 C191.664424,655.717865 242.325034,628.456945 293.699722,602.712937 C396.459646,551.198552 502.106211,505.658865 604.019528,452.59922 C654.966956,426.102359 704.972171,397.733914 753.033617,366.331644 C801.09836,334.959698 847.185049,300.528217 890.369932,262.743178 C933.575914,224.989124 973.843826,183.9092 1010.85718,140.092109 L1017.76059,131.844349 L1021.21229,127.720798 C1022.3688,126.351555 1023.4653,124.93221 1024.59477,123.539894 L1038.03631,106.747715 L1051.14289,89.6918405 L1052.7794,87.5585376 L1054.37306,85.392932 L1057.56036,81.0617207 L1063.93497,72.3992982 C1080.79591,49.1993002 1096.87419,25.4356515 1112.24565,1.22108209 L1116,3.59830398 Z" id="Fill-116"></path>
                        <path d="M1080,3.5983618 C1050.01583,50.4748105 1017.45849,95.7683838 981.529157,138.287805 C945.700006,180.873152 906.835661,220.91113 865.195808,257.824232 C823.57441,294.763045 779.209143,328.55193 732.922574,359.380751 C686.6393,390.237262 638.467021,418.150191 589.323874,444.113698 C540.175455,470.093028 490.058805,494.152601 439.749036,517.727621 C389.435972,541.305279 338.916606,564.423434 288.92255,588.645844 C238.93179,612.856388 189.451839,638.185031 141.326357,665.942375 C93.2028514,693.676646 46.4489741,723.869285 2,757.221082 C46.3375847,723.720952 93.0011641,693.364817 141.048213,665.461118 C189.097239,637.535663 238.512597,612.030339 288.436787,587.646411 C338.364273,563.251275 388.815091,539.961054 439.039835,516.219901 C489.261943,492.480726 539.271158,468.267546 588.282483,442.151091 C637.289193,416.051118 685.294059,388.018204 731.378941,357.072034 C777.467778,326.153554 821.604993,292.302699 862.981203,255.33422 C904.377185,218.390792 942.981842,178.352813 978.550644,135.789881 C1014.21897,93.2935341 1046.51596,48.0428124 1076.24703,1.22108209 L1080,3.5983618 Z" id="Fill-118"></path>
                        <path d="M1045,2.59955553 C1015.96493,47.9910655 984.520445,91.8985031 949.924517,133.234868 C915.421589,174.632574 878.080517,213.674232 838.101813,249.80579 C798.124428,285.942624 755.547666,319.153527 711.095077,349.561182 C666.650404,380.001817 620.319351,407.590393 572.979151,433.210101 C525.633016,458.842341 477.273776,482.516924 428.622345,505.502897 C379.969595,528.496127 331.009484,550.811299 282.41016,573.886977 C233.813473,596.956718 185.562404,620.797518 138.391055,646.671826 C91.2230039,672.528985 45.1425891,700.444058 1,731.221082 C45.0363978,700.292353 91.0304086,672.211723 138.123268,646.184391 C185.218766,620.141228 233.405198,596.125638 281.931969,572.883744 C330.462039,549.635254 379.347618,527.150568 427.907368,503.997059 C476.465799,480.849486 524.713571,457.023198 571.917898,431.257062 C619.11629,405.503458 665.277172,377.799453 709.521995,347.271093 C753.776712,316.774394 796.126581,283.503469 835.862562,247.336293 C875.599203,211.172416 912.68502,172.128779 946.931374,130.7502 C981.271388,89.4316449 1012.45864,45.5637826 1041.24439,0.22108209 L1045,2.59955553 Z" id="Fill-120"></path>
                        <path d="M1010,3.59781364 C981.94432,47.4302535 951.643393,89.8759372 918.407949,129.95148 C885.255613,170.080411 849.470851,208.049455 811.17371,243.306284 C772.87393,278.561135 732.133665,311.130135 689.547207,341.029102 C646.968004,370.951796 602.571629,398.217639 557.093526,423.451463 C511.617402,448.709673 465.09055,471.998478 418.185753,494.425175 C371.278318,516.86044 323.980405,538.443482 276.891582,560.460216 C229.804738,582.47629 182.918409,604.946487 136.869101,629.059833 C90.8224308,653.161315 45.6154195,678.929013 2,707.221082 C45.5145022,678.774123 90.638405,652.840331 136.609882,628.5688 C182.584656,604.285405 229.405026,581.641863 276.418655,559.455081 C323.434923,537.26698 370.653686,515.516525 417.462842,492.923734 C464.270679,470.338853 510.679465,446.90109 556.009819,421.511058 C601.342812,396.146732 645.565715,368.768841 687.945721,338.760463 C730.332324,308.775154 770.848328,276.147494 808.909995,240.860346 C846.968365,205.571881 882.502482,167.596245 915.402855,127.483133 C948.386995,87.4227495 978.435958,45.009362 1006.24429,1.22108209 L1010,3.59781364 Z" id="Fill-122"></path>
                        <path d="M974,2.60055786 C946.878885,45.0576377 917.661795,86.2154419 885.706098,125.175893 C853.824221,164.180556 819.504291,201.205621 782.778605,235.677006 C746.06676,270.160928 707.04407,302.149239 666.225961,331.607624 C625.411807,361.082505 582.831234,388.041979 539.147968,412.992822 C495.45877,437.950922 450.692584,460.945263 405.476225,482.941887 C360.25657,504.945769 314.58081,525.967771 268.988757,547.14946 C223.398682,568.333129 177.890336,589.70552 133.021329,612.381145 C88.1562758,635.047533 43.9279245,659.034971 1,685.221082 C43.8316942,658.877263 87.9789748,634.722219 132.770207,611.885586 C177.564735,589.040375 223.005192,567.49444 268.51947,546.141845 C314.035725,524.79057 359.628437,503.602942 404.74527,481.443332 C449.859467,459.29032 494.503058,436.149489 538.043297,411.063374 C581.578264,385.984518 623.982854,358.914847 664.597297,329.355502 C705.217014,299.813314 744.016264,267.766276 780.494125,233.2487 C816.984509,198.743662 851.05859,161.711338 882.692641,122.717234 C914.400512,83.7686599 943.369117,42.63857 970.24702,0.22108209 L974,2.60055786 Z" id="Fill-124"></path>
                        <path d="M940,2.59854156 C913.79418,43.554006 885.638295,83.3003023 854.933998,121.022527 C824.293692,158.781674 791.401839,194.735639 756.216877,228.307529 C721.057644,261.903154 683.72075,293.1978 644.642254,322.112348 C605.571015,351.046017 564.777306,377.600248 522.873987,402.203591 C480.966708,426.816164 437.947181,449.465323 394.419026,471.024648 C350.887573,492.586609 306.835619,513.05676 262.759915,533.447793 C218.683552,553.837508 174.58212,574.174478 130.945775,595.483266 C87.3120692,616.786121 44.1394915,639.075957 2,663.221082 C44.0471339,638.915746 87.1412076,616.457786 130.701028,594.984831 C174.262827,573.505282 218.294331,552.997551 262.29087,532.441032 C306.28807,511.882535 350.250965,491.248217 393.676207,469.533296 C437.096171,447.820353 479.989037,425.028125 521.743925,400.289624 C563.495514,375.561672 604.111765,348.899974 642.984435,319.883892 C681.863042,290.885611 718.980257,259.532947 753.907277,225.903038 C788.860684,192.297523 821.510429,156.33235 851.906646,118.580456 C882.367515,80.8654832 910.278653,41.1422626 936.244343,0.22108209 L940,2.59854156 Z" id="Fill-126"></path>
                        <path d="M905,2.59941286 C879.672401,42.1967075 852.527205,80.6655152 823.007589,117.261866 C793.54471,153.889874 761.995718,188.862417 728.268909,221.610304 C694.575088,254.389849 658.828141,285.040372 621.400824,313.454368 C583.978785,341.884852 544.892211,368.07617 504.686049,392.361394 C464.485166,416.670361 423.15216,439.042236 381.259032,460.244732 C339.361944,481.451185 296.894178,501.48628 254.313595,521.247663 C211.731693,541.007726 169.034336,560.510566 126.661573,580.707251 C84.2914488,600.899319 42.2386619,621.791167 1,644.221082 C42.1502561,621.627599 84.1258529,600.567566 126.421426,580.206654 C168.718978,559.840465 211.344423,540.166803 253.843857,520.240533 C296.341312,500.313603 338.717374,480.116919 380.502964,458.75877 C422.284596,437.405237 463.486312,414.892219 503.532156,390.461235 C543.583937,366.052676 582.491721,339.75649 619.715176,311.245541 C656.94457,282.749761 692.472482,252.040538 725.938031,219.226037 C759.436569,186.441875 790.746073,151.455482 819.969464,114.83143 C849.248934,78.2396969 876.153323,39.7893566 901.244073,0.22108209 L905,2.59941286 Z" id="Fill-128"></path>
                        <path d="M869,2.60011179 C844.590977,40.7846601 818.498801,77.9221978 790.20507,113.336489 C761.963443,148.77783 731.795292,182.705064 699.577281,214.576541 C667.396204,246.481005 633.291901,276.429993 597.575675,304.291558 C561.864065,332.166318 524.554383,357.951015 486.124797,381.893053 C447.699828,405.853564 408.156274,427.963498 367.986155,448.813984 C327.818014,469.677666 287.03452,489.310928 246.058439,508.498205 C164.106277,546.857585 81.3461749,583.545839 1,625.221082 C81.1740342,583.217287 163.804866,546.18069 245.584887,507.492099 C286.475227,488.140546 327.162428,468.348286 367.21449,447.335502 C407.269189,426.336574 446.678196,404.089413 484.946194,380.00883 C523.218809,355.946059 560.349095,330.059102 595.862182,302.103854 C631.381205,274.1618 665.269179,244.154754 697.225351,212.213345 C729.217798,180.304262 759.151152,146.361195 787.157322,110.919195 C815.214937,75.5042434 841.070337,38.3812199 865.244563,0.22108209 L869,2.60011179 Z" id="Fill-130"></path>
                        <path d="M834,3.5972555 C810.439727,40.2987892 785.279544,75.9763148 758.282793,110.228532 L748.073561,123.005571 L742.968615,129.393431 C741.257958,131.515909 739.449736,133.557336 737.69557,135.643571 L727.09147,148.09443 L721.789419,154.31953 C720.020092,156.392586 718.277133,158.489365 716.418811,160.484665 L694.443286,184.710959 L671.73142,208.246673 C641.012093,239.200846 608.510914,268.374536 574.475746,295.619479 C540.445192,322.874966 504.891857,348.197752 468.227747,371.757189 C431.562319,395.323215 393.80853,417.156862 355.357294,437.638343 C316.914628,458.144206 277.821978,477.390156 238.470257,496.05623 C159.767474,533.391015 80.0053355,568.443856 2,607.221082 C79.8392138,568.113063 159.468191,532.714273 237.992327,495.053968 C277.253736,476.225792 316.245527,456.822352 354.569535,436.170203 C392.900794,415.542434 430.516807,393.574362 467.022706,369.891043 C503.527945,346.214313 538.901975,320.791366 572.734764,293.456806 C606.574146,266.132788 638.86174,236.900452 669.358912,205.90806 L691.902679,182.345988 L713.707468,158.101243 C715.551946,156.104625 717.280402,154.007188 719.035887,151.932813 L724.295088,145.704419 L734.812173,133.247629 C736.552495,131.161394 738.346214,129.118649 740.043028,126.99683 L745.103806,120.606334 L755.226022,107.827318 C781.99073,73.5698297 806.917552,37.9028473 830.246441,1.22108209 L834,3.5972555 Z" id="Fill-132"></path>
                        <path d="M799,2.59864499 C776.323057,37.9495636 752.16403,72.3516988 726.309309,105.446372 C700.447335,138.527199 672.954278,170.361883 643.590815,200.386692 C614.281413,230.458972 583.31192,258.901376 550.882098,285.556981 C518.45821,312.222477 484.583224,337.096558 449.614477,360.291313 C414.642432,383.487386 378.604316,405.043034 341.84164,425.243747 C305.079623,445.453032 267.639856,464.38848 229.881651,482.630968 C154.361946,519.125174 77.5684926,552.858743 2,589.221082 C77.4076258,552.52512 154.062628,518.447377 229.396414,481.631416 C267.061658,463.22871 304.396598,444.138317 341.034669,423.785297 C377.674058,403.441508 413.571745,381.753994 448.382263,358.441878 C483.190144,335.131739 516.885144,310.159417 549.113882,283.415461 C581.347235,256.680735 612.107075,228.17965 641.197592,198.06781 C670.342171,168.002122 697.608432,136.145021 723.242291,103.056282 C748.868898,69.9530371 772.797174,35.556836 795.246002,0.22108209 L799,2.59864499 Z" id="Fill-134"></path>
                        <path d="M763,2.59839961 C741.199344,36.5737347 718.030129,69.6722445 693.299767,101.577481 C668.562809,133.468872 642.324723,164.223028 614.348072,193.325719 C586.421546,222.470603 556.95432,250.131477 526.104684,276.147479 C495.260983,302.170733 463.042128,326.54582 429.754147,349.33405 C396.466827,372.130191 362.120933,393.350024 327.057453,413.273079 C291.978144,433.175696 256.200375,451.809884 220.0526,469.665477 C147.750455,505.389188 73.9893927,537.985336 1,572.221082 C73.8311015,537.650429 147.449042,504.712121 219.557281,468.670642 C255.608102,450.656825 291.277706,431.870347 326.231041,411.825987 C361.167888,391.761849 395.369341,370.41214 428.494413,347.503924 C461.620805,324.6023 493.658944,300.130961 524.308078,274.029254 C554.963148,247.935458 584.222618,220.21525 611.933471,191.027513 C639.694451,161.883288 665.70961,131.104081 690.222322,99.1995038 C714.727779,67.2830601 737.67011,34.1858689 759.244541,0.22108209 L763,2.59839961 Z" id="Fill-136"></path>
                        <path d="M728,2.59896529 C707.076032,35.2523265 684.889495,67.0959149 661.269061,97.8481564 C637.641378,128.589188 612.637786,158.293605 586.021059,186.489918 C559.451777,214.725138 531.454528,241.607879 502.15715,266.981199 C472.865044,292.360453 442.276762,316.22501 410.64996,338.599928 C379.025793,360.98276 346.369694,381.877271 312.993351,401.515579 C279.60383,421.140699 245.488134,439.489833 210.970472,457.016006 C141.923287,492.077584 71.2629669,523.75236 1,556.221082 C71.1067933,523.416713 141.618188,491.401674 210.465049,456.02621 C244.883208,438.343754 278.886881,419.843612 312.145928,400.080672 C345.393115,380.303225 377.903583,359.282105 409.364328,336.78849 C440.827709,314.30213 471.236094,290.341956 500.335783,264.885549 C529.440745,239.434418 557.232398,212.49101 583.589495,184.212268 C609.992719,155.972432 634.777536,126.23966 658.184467,95.4828023 C681.58415,64.7147345 703.54664,32.867849 724.24788,0.22108209 L728,2.59896529 Z" id="Fill-138"></path>
                        <path d="M693,2.60044831 C672.946662,33.9116144 651.733878,64.4784863 629.209385,94.0549453 C606.674345,123.617548 582.888897,152.245823 557.61245,179.501642 C532.377529,206.792431 505.829581,232.860546 478.063522,257.551584 C450.302078,282.247241 421.326478,305.561863 391.350287,327.49083 C361.377392,349.425076 330.407862,369.973668 298.714584,389.306844 C267.022624,408.649916 234.574619,426.716208 201.703439,443.940549 C135.942623,478.390552 68.4357176,509.285362 1,540.221082 C68.2808172,508.948846 135.632163,477.71752 201.186006,442.956735 C233.95304,425.577332 266.285694,407.363897 297.845164,387.884898 C329.405953,368.415137 360.225856,347.741836 390.035941,325.698058 C419.848003,303.660877 448.643655,280.251899 476.213946,255.478381 C503.788851,230.710142 530.13444,204.580663 555.159092,177.243685 C580.227247,149.942338 603.797153,121.282391 626.113355,91.699993 C648.420329,62.1057184 669.413615,31.5309285 689.246797,0.22108209 L693,2.60044831 Z" id="Fill-140"></path>
                        <path d="M658,2.60050833 C638.86751,32.4891637 618.678729,61.6994912 597.299893,90.017039 L589.23242,100.598425 L585.198354,105.887799 L581.043701,111.083473 L572.715944,121.460965 L568.552725,126.648722 C567.16828,128.380833 565.785152,130.113604 564.33679,131.794247 L547.171911,152.124947 L529.50887,172.022783 C505.6636,198.287532 480.619707,223.454946 454.446381,247.380519 C428.27635,271.310711 400.980839,293.993783 372.732493,315.404 C344.485465,336.818836 315.289555,356.959498 285.374076,375.94278 C255.468481,394.947177 224.799827,412.716331 193.682431,429.627677 C131.431166,463.454989 67.324309,493.645856 3,523.221082 C67.1694567,493.309992 131.113554,462.783919 193.150662,428.652416 C224.159991,411.587984 254.709376,393.673662 284.479228,374.535975 C314.260282,355.418744 343.305952,335.156669 371.387585,313.634277 C399.471853,292.117164 426.58879,269.339733 452.569044,245.332338 C478.553253,221.329563 503.397485,196.099462 527.036506,169.787205 L544.543377,149.855716 L561.552085,129.497303 C562.98661,127.81468 564.356558,126.079269 565.727824,124.345178 L569.852166,119.150824 L578.099531,108.762774 L582.213988,103.561161 L586.207859,98.2658486 L594.195599,87.676544 C615.360278,59.3352415 635.332925,30.1130367 654.247963,0.22108209 L658,2.60050833 Z" id="Fill-142"></path>
                        <path d="M623,2.5990387 C586.371211,59.7102234 545.85794,114.416414 500.596603,164.99844 C477.973851,190.282198 454.251331,214.580747 429.481163,237.756922 C404.714293,260.935734 378.901094,282.988874 352.181427,303.87282 C298.747373,345.671705 241.698665,382.690937 182.588306,415.853078 C123.493121,449.096991 62.4688888,478.711981 1,507.221082 C62.3131929,478.376323 123.167215,448.430292 182.040072,414.886333 C240.930082,381.423485 297.703682,344.136518 350.807213,302.125952 C377.361947,281.135836 402.99702,258.991032 427.575867,235.733746 C452.158672,212.481076 475.683273,188.119221 498.103488,162.784685 C542.957773,112.103083 583.04354,57.347434 619.243506,0.22108209 L623,2.5990387 Z" id="Fill-144"></path>
                        <path d="M588,2.59885046 C553.264961,56.7540746 515.032663,108.734623 472.562743,157.091812 C430.10998,205.444384 383.608974,250.23492 333.633805,290.730175 C283.678431,331.262355 230.352492,367.530247 174.904442,400.050153 C119.475529,432.645229 62.0683543,461.700688 4,489.221082 C61.9086681,461.366376 119.13768,431.984518 174.336963,399.094693 C229.55736,366.27872 282.602859,329.74905 332.227643,289.008502 C381.872882,248.304219 427.995788,203.358727 470.048016,154.90197 C512.118061,106.439279 549.930028,54.4013632 584.242756,0.22108209 L588,2.59885046 Z" id="Fill-146"></path>
                        <path d="M552,2.60131657 C518.925229,54.3110195 482.669673,104.029273 442.594933,150.518434 C402.520852,196.990433 358.779776,240.281525 311.796643,279.686089 C264.828664,319.115076 214.715474,354.699119 162.467048,386.683108 C110.24168,418.736404 56.0260144,447.378427 1,474.221082 C55.8639446,447.045748 109.893163,418.079628 161.883991,385.736558 C213.898537,353.461477 263.727774,317.620003 310.365685,277.985073 C357.019407,238.373245 400.387591,194.927035 440.067697,148.345463 C479.747803,101.74739 515.590279,51.9637889 548.249334,0.22108209 L552,2.60131657 Z" id="Fill-148"></path>
                        <path d="M517,3.59652801 C485.735408,52.3629967 451.619412,99.3409641 414.129322,143.514641 C376.622753,187.661308 335.850846,229.033987 292.107573,266.982494 C248.374846,304.945492 201.750509,339.523843 153.020246,370.7518 C104.311735,402.034433 53.629783,430.121479 2,456.221082 C53.4623636,429.792105 103.949212,401.387543 152.416482,369.819013 C200.906161,338.307794 247.241799,303.477801 290.645619,265.310591 C334.059985,227.157873 374.463437,185.62907 411.581119,141.369098 C448.68364,97.0807991 482.392951,50.0303694 513.247563,1.22108209 L517,3.59652801 Z" id="Fill-150"></path>
                        <path d="M482,3.59676281 C452.556233,49.4699322 420.571854,93.7448205 385.64092,135.60977 C350.676983,177.436508 312.832498,216.863848 272.296245,253.308082 C231.767253,289.760221 188.61184,323.264171 143.418789,353.708592 C98.2442206,384.197153 51.1495067,411.746749 3,437.221082 C50.975248,411.420636 97.8660002,383.558763 142.792382,352.790865 C187.737246,322.067107 230.602228,288.318079 270.801185,251.663684 C311.009383,215.017194 348.489509,175.431739 383.070606,133.485756 C417.618698,91.5028789 449.202414,47.1469565 478.241558,1.22108209 L482,3.59676281 Z" id="Fill-152"></path>
                        <path d="M446,3.59606467 C418.459016,46.545313 388.682448,88.0805048 356.357804,127.561462 C323.996241,167.002902 289.11495,204.381545 251.836555,239.19684 C214.562115,274.014111 174.939358,306.298331 133.384281,335.839399 C91.8489825,365.418009 48.4835518,392.353579 4,417.221082 C48.3022527,392.030855 91.4547394,364.790345 132.736219,334.938408 C174.037477,305.122694 213.36686,272.598737 250.313642,237.581246 C287.26504,202.56573 321.787029,165.026384 353.77149,125.460465 C385.719691,85.8563461 415.103993,44.2322406 442.246119,1.22108209 L446,3.59606467 Z" id="Fill-154"></path>
                        <path d="M411,2.60133932 C385.172451,42.9838621 357.377377,82.1148685 327.353848,119.467613 C297.31121,156.799235 265.03814,192.328171 230.640723,225.650452 C196.242647,258.970093 159.74724,290.100901 121.443108,318.787423 C83.1580836,347.506289 43.1506518,373.86074 2,398.221082 C42.9622017,373.54258 82.7475786,346.887132 120.773648,317.899612 C158.818827,288.944436 195.019039,257.575999 229.09161,224.057013 C263.162864,190.534727 295.080778,154.844731 324.752446,117.383733 C354.404346,79.9016121 381.813295,40.6748937 407.24813,0.22108209 L411,2.60133932 Z" id="Fill-156"></path>
                        <path d="M376,2.5993429 C351.961835,40.0012205 326.244487,76.3260875 298.635586,111.161739 C271.036578,145.999368 241.538761,179.335251 210.167858,210.80071 C178.805528,242.273423 145.57275,271.863842 110.749827,299.422912 C75.93284,326.993853 39.5375795,352.530808 2,376.221082 C39.3390587,352.218191 75.5048002,326.388406 110.056653,298.554313 C144.615761,270.732091 177.549769,240.909518 208.586946,209.237626 C239.633357,177.573649 268.780959,144.073544 296.014584,109.101371 C323.256782,74.1318352 348.593577,37.7034222 372.244593,0.22108209 L376,2.5993429 Z" id="Fill-158"></path>
                        <path d="M341,2.59849825 C318.899131,36.9325808 295.377917,70.3555182 270.270617,102.55019 C245.1686,134.745521 218.477196,165.704675 190.190461,195.132287 C161.91099,224.565174 132.037509,252.457949 100.750947,278.653699 C69.4696664,304.856702 36.7812469,329.356747 3,352.221082 C36.5725862,329.050834 69.0213099,304.265315 100.03252,277.805846 C131.049012,251.35363 160.622048,223.231421 188.577963,193.601405 C216.541141,163.975345 242.886538,132.84939 267.628022,100.514948 C292.374127,68.1805055 315.521601,34.645488 337.240145,0.22108209 L341,2.59849825 Z" id="Fill-160"></path>
                        <path d="M306,2.59964768 C285.889093,33.8864262 264.596822,64.4133301 242.000498,93.9422391 C219.407472,123.471808 195.506436,151.998764 170.27892,179.296201 C145.056021,206.596277 118.506643,232.660237 90.7363234,257.339669 C62.9712807,282.024378 33.9885944,305.320601 4,327.221082 C33.7689436,305.021796 62.5036159,281.447876 89.9942601,256.511855 C117.489522,231.58177 143.737457,205.292221 168.639125,177.795581 C193.545409,150.30092 217.103448,121.603783 239.341603,91.9290993 C261.583715,62.2544158 282.507923,31.6081218 302.24417,0.22108209 L306,2.59964768 Z" id="Fill-162"></path>
                        <path d="M270,2.60092928 C233.877665,58.9121001 193.855962,112.753008 149.460065,162.741019 C127.273642,187.737334 104.014414,211.769435 79.7390198,234.711927 C55.4649425,257.6564 30.1760153,279.507964 4,300.221082 C29.9455173,279.218238 54.9789209,257.096746 78.9731077,233.906765 C102.969929,210.719424 125.926874,186.465574 147.793894,161.271928 C191.549665,110.889256 230.864068,56.7526825 266.250126,0.22108209 L270,2.60092928 Z" id="Fill-164"></path>
                        <path d="M235,3.59677251 C202.826855,53.5258003 167.578699,101.499462 128.899277,146.555887 C90.2462449,191.624171 48.1507317,233.724488 3,272.221082 C47.6671482,233.163177 89.1867155,190.582582 127.202447,145.120986 C165.243907,99.6712479 199.795386,51.3899189 231.243487,1.22108209 L235,3.59677251 Z" id="Fill-166"></path>
                        <path d="M200,2.6009463 C172.045265,45.9908999 141.7801,87.8965732 108.958423,127.694951 C76.1512592,167.497949 40.7803248,205.169893 3,240.221082 C40.2729806,204.628715 75.0606999,166.48951 107.233188,126.292508 C139.420191,86.0994655 169.000539,43.8717252 196.243409,0.22108209 L200,2.6009463 Z" id="Fill-168"></path>
                        <path d="M164,2.59843877 C140.444255,39.1507922 115.251708,74.6410486 88.27045,108.698694 C61.2951105,142.757658 32.5264568,175.372802 2,206.221082 C31.9977349,174.855928 60.1784814,141.783904 86.5231687,107.331351 C112.874432,72.8801169 137.395555,37.0562658 160.256202,0.22108209 L164,2.59843877 Z" id="Fill-170"></path>
                        <path d="M129,2.60071061 C109.766633,32.3929206 89.4500374,61.4730898 67.9648177,89.6419259 C46.4828824,117.811422 23.8303518,145.067605 0,171.221082 C23.2811836,144.572674 45.33922,116.872373 66.193816,88.3082517 C87.0510396,59.7441306 106.70745,30.3175097 125.26027,0.22108209 L129,2.60071061 Z" id="Fill-172"></path>
                        <path d="M94,2.59735886 C66.2747498,44.7864857 36.3367483,85.515316 4,124.221082 C35.1797369,84.5848383 63.8455553,43.0711645 90.2311081,0.22108209 L94,2.59735886 Z" id="Fill-175"></path>
                        <path d="M59,2.60867354 C41.2284111,29.472719 22.5790586,55.7256311 3,81.2210821 C21.3909547,54.84303 38.7851381,27.7969026 55.2561905,0.22108209 L59,2.60867354 Z" id="Fill-177"></path>
                        <polygon id="Fill-179" points="24 2.59772737 1 34.2210821 20.2947517 0.22108209"></polygon>
                    </g>
                </g>
            </g>
        </g>
    </g>
</svg>