<?xml version="1.0" encoding="UTF-8"?>
<svg width="752px" height="521px" viewBox="0 0 752 521" version="1.1" xmlns="http://www.w3.org/2000/svg" xmlns:xlink="http://www.w3.org/1999/xlink">
    <title>Shape Copy</title>
    <g id="Symbols" stroke="none" stroke-width="1" fill="none" fill-rule="evenodd" opacity="0.0837286086">
        <g id="Images/Global/footer-background" transform="translate(-424.000000, 0.000000)" fill="#9AB3BD" fill-rule="nonzero">
            <g id="Shape">
                <path d="M1177,590 L1060.17819,399.407269 L1175.33112,399.407269 L883.777261,-81 L773.630984,100.572567 L716.22141,5.35972118 L424,487.103311 L655.307181,487.103311 L592.557181,590 L1176.66622,590 L1177,590 Z M500.168925,442.477411 L717.254907,85.3244811 L750.652751,139.924298 L593.181919,399.732601 L641.775781,399.732601 L884.912082,-1 L1101.99806,355.652015 L1035.20238,355.652015 L884.912082,110.370269 L862.034559,147.93895 L1103,546 L668.828034,546 L832.978435,276.00641 L934.34089,442.978327 L780.71081,442.978327 L753.992535,487.058913 L1009.65303,487.058913 L832.978435,196.026862 L682.688139,442.477411 L499,442.477411 L500.168925,442.477411 Z" id="Shape-Copy" style="mix-blend-mode: screen;"></path>
            </g>
        </g>
    </g>
</svg>