<?xml version="1.0" encoding="UTF-8"?>
<svg width="248px" height="19px" viewBox="0 0 248 19" version="1.1" xmlns="http://www.w3.org/2000/svg" xmlns:xlink="http://www.w3.org/1999/xlink">
    <title>Logos/captial-partners</title>
    <g id="Symbols" stroke="none" stroke-width="1" fill="none" fill-rule="evenodd">
        <g id="Global/Header" transform="translate(0.000000, -15.000000)" fill="#021534" fill-rule="nonzero">
            <g id="CAPITALPARTNERS" transform="translate(0.900000, 15.450000)">
                <path d="M16.05,11.675 L12.375,11.175 C12.15,13.175 10.875,14.7 8.325,14.7 C5.475,14.7 3.95,12.5 3.95,8.9 C3.95,5.3 5.4,3.15 8.25,3.15 C10.8,3.15 12.05,4.775 12.225,6.525 L15.925,5.95 C15.525,1.425 12.325,-4.4408921e-14 8.2,-4.4408921e-14 C2.875,-4.4408921e-14 1.84741111e-13,3.225 1.84741111e-13,8.9 C1.84741111e-13,14.57 2.86780165,17.733686 8.01187979,17.8468547 L8.289,17.85 L8.53715699,17.8475148 C12.5390901,17.7711974 15.7074468,15.9324468 16.05,11.675 Z M21.275,17.55 L22.675,13.525 L29.025,13.525 L30.4,17.55 L34.525,17.55 L28.225,0.2 L23.5,0.2 L17.2,17.55 L21.275,17.55 Z M28.125,10.45 L23.675,10.45 L25.825,4.175 L25.975,4.175 L28.125,10.45 Z M40.675,17.55 L40.675,12.9 L43.625,12.9 C46.875,12.9 50,10.625 50,6.525 C50,2.85 47.5,0.3 43.625,0.3 L36.8,0.3 L36.8,17.55 L40.675,17.55 Z M43.45,9.75 L40.675,9.75 L40.675,3.45 L43.45,3.45 C45,3.45 46.05,4.625 46.05,6.525 C46.05,8.425 44.9,9.75 43.45,9.75 Z M56.725,17.55 L56.725,0.3 L52.85,0.3 L52.85,17.55 L56.725,17.55 Z M68.7,17.55 L68.7,3.45 L73.95,3.45 L73.95,0.3 L59.6,0.3 L59.6,3.45 L64.825,3.45 L64.825,17.55 L68.7,17.55 Z M77.5,17.55 L78.9,13.525 L85.25,13.525 L86.625,17.55 L90.75,17.55 L84.45,0.2 L79.725,0.2 L73.425,17.55 L77.5,17.55 Z M84.35,10.45 L79.9,10.45 L82.05,4.175 L82.2,4.175 L84.35,10.45 Z M104.2,17.55 L104.2,14.4 L96.9,14.4 L96.9,0.3 L93.025,0.3 L93.025,17.55 L104.2,17.55 Z M118.1,17.55 L118.1,12.9 L121.05,12.9 C124.3,12.9 127.425,10.625 127.425,6.525 C127.425,2.85 124.925,0.3 121.05,0.3 L114.225,0.3 L114.225,17.55 L118.1,17.55 Z M120.875,9.75 L118.1,9.75 L118.1,3.45 L120.875,3.45 C122.425,3.45 123.475,4.625 123.475,6.525 C123.475,8.425 122.325,9.75 120.875,9.75 Z M131.625,17.55 L133.025,13.525 L139.375,13.525 L140.75,17.55 L144.875,17.55 L138.575,0.2 L133.85,0.2 L127.55,17.55 L131.625,17.55 Z M138.475,10.45 L134.025,10.45 L136.175,4.175 L136.325,4.175 L138.475,10.45 Z M151.025,17.55 L151.025,11.05 L153.875,11.05 L157.125,17.55 L161.4,17.55 L161.4,17.3 L157.825,10.6 C159.725,9.925 161.075,8.375 161.075,5.625 C161.075,1.6 158.35,0.3 154.9,0.3 L147.15,0.3 L147.15,17.55 L151.025,17.55 Z M154.875,7.9 L151.025,7.9 L151.025,3.45 L154.875,3.45 C156.325,3.45 157.125,4.325 157.125,5.675 C157.125,7.025 156.325,7.9 154.875,7.9 Z M172.125,17.55 L172.125,3.45 L177.375,3.45 L177.375,0.3 L163.025,0.3 L163.025,3.45 L168.25,3.45 L168.25,17.55 L172.125,17.55 Z M184.075,17.55 L184.075,6.225 L191.975,17.55 L196.1,17.55 L196.1,0.3 L192.275,0.3 L192.275,11.6 L184.35,0.3 L180.25,0.3 L180.25,17.55 L184.075,17.55 Z M212.825,17.55 L212.825,14.4 L204.2,14.4 L204.2,10.225 L211.475,10.225 L211.475,7.075 L204.2,7.075 L204.2,3.45 L212.825,3.45 L212.825,0.3 L200.325,0.3 L200.325,17.55 L212.825,17.55 Z M220.075,17.55 L220.075,11.05 L222.925,11.05 L226.175,17.55 L230.45,17.55 L230.45,17.3 L226.875,10.6 C228.775,9.925 230.125,8.375 230.125,5.625 C230.125,1.6 227.4,0.3 223.95,0.3 L216.2,0.3 L216.2,17.55 L220.075,17.55 Z M223.925,7.9 L220.075,7.9 L220.075,3.45 L223.925,3.45 C225.375,3.45 226.175,4.325 226.175,5.675 C226.175,7.025 225.375,7.9 223.925,7.9 Z M239.875,17.85 C243.5,17.85 246.975,16.3 246.975,12.125 C246.975,5.1 236.975,8.475 236.975,5.1 C236.975,3.875 237.975,3.1 239.725,3.1 C241.6,3.1 243.05,3.925 243.2,5.95 L243.425,5.95 L246.8,5.65 C246.8,1.6 243.875,-4.4408921e-14 239.875,-4.4408921e-14 C236.1,-4.4408921e-14 233.05,1.85 233.05,5.2 C233.05,12.575 243.025,9.075 243.025,12.45 C243.025,14.15 241.525,14.775 239.95,14.775 C238.075,14.775 236.35,14.075 236.2,11.6 L236,11.6 L232.525,12.05 C232.525,16.5 236.275,17.85 239.875,17.85 Z"></path>
            </g>
        </g>
    </g>
</svg>