<?xml version="1.0" encoding="UTF-8"?>
<svg width="596px" height="531px" viewBox="0 0 596 531" version="1.1" xmlns="http://www.w3.org/2000/svg" xmlns:xlink="http://www.w3.org/1999/xlink">
    <title>Images/Watermark-14</title>
    <g id="R3-Designs" stroke="none" stroke-width="1" fill="none" fill-rule="evenodd" opacity="0.139485677">
        <g id="Home---D-R3" transform="translate(-906.000000, -213.000000)" fill="#FFFFFF">
            <g id="BG" transform="translate(0.000000, 114.000000)">
                <g id="Shape" transform="translate(906.000000, 99.000000)">
                    <path d="M596,531 L503.535461,380.173264 L594.679078,380.173264 L363.914007,-2.27373675e-13 L276.733156,143.688574 L231.29344,68.3412995 L0,449.572069 L183.079787,449.572069 L133.413121,531 L595.735816,531 L596,531 Z M59.9231407,414.052503 L231.363561,131.333639 L257.73901,174.554335 L133.378767,380.216117 L171.755046,380.216117 L363.768316,63 L535.208737,345.322344 L482.457838,345.322344 L363.768316,151.159646 L345.701134,180.898657 L536,496 L193.11916,496 L322.754493,282.275641 L402.803981,414.449023 L281.476915,414.449023 L260.376555,449.342796 L462.280619,449.342796 L322.754493,218.964591 L204.064971,414.052503 L59,414.052503 L59.9231407,414.052503 Z"></path>
                </g>
            </g>
        </g>
    </g>
</svg>